<svg width="81" height="80" viewBox="0 0 81 80" fill="none" xmlns="http://www.w3.org/2000/svg">
<g clip-path="url(#clip0_572_20169)">
<path d="M58.7458 15.9492H22.9211V79.9994H58.7458V15.9492Z" fill="#BDBCBC"/>
<path d="M34.6957 15.9492H22.9211V79.9994H34.6957V15.9492Z" fill="#A7A6A6"/>
<path d="M58.7459 15.9492H46.8043V79.9994H58.7459V15.9492Z" fill="#A7A6A6"/>
<path d="M44.0484 22.6289H37.3678V27.9734H44.0484V22.6289Z" fill="#4FC4D4"/>
<path d="M44.0484 29.2287H37.3678C36.6759 29.2287 36.1151 28.668 36.1151 27.9761V22.6316C36.1151 21.9398 36.6757 21.3789 37.3678 21.3789H44.0484C44.7403 21.3789 45.3011 21.9397 45.3011 22.6316V27.9761C45.3011 28.668 44.7401 29.2287 44.0484 29.2287ZM38.6204 26.7236H42.7957V23.8844H38.6204V26.7236Z" fill="#918F90"/>
<path d="M44.0484 37.3281H37.3678V42.6727H44.0484V37.3281Z" fill="#4FC4D4"/>
<path d="M44.0484 43.9241H37.3678C36.6759 43.9241 36.1151 43.3633 36.1151 42.6714V37.3269C36.1151 36.6352 36.6757 36.0742 37.3678 36.0742H44.0484C44.7403 36.0742 45.3011 36.635 45.3011 37.3269V42.6714C45.3011 43.3631 44.7401 43.9241 44.0484 43.9241ZM38.6204 41.4187H42.7957V38.5795H38.6204V41.4187Z" fill="#918F90"/>
<path d="M44.0484 52.0234H37.3678V57.368H44.0484V52.0234Z" fill="#4FC4D4"/>
<path d="M44.0484 58.6231H37.3678C36.6759 58.6231 36.1151 58.0623 36.1151 57.3705V52.0261C36.1151 51.3344 36.6757 50.7734 37.3678 50.7734H44.0484C44.7403 50.7734 45.3011 51.3342 45.3011 52.0261V57.3706C45.3011 58.0623 44.7401 58.6231 44.0484 58.6231ZM38.6204 56.118H42.7957V53.2787H38.6204V56.118Z" fill="#918F90"/>
<path d="M44.0484 66.7227H37.3678V72.0672H44.0484V66.7227Z" fill="#4FC4D4"/>
<path d="M44.0484 73.3186H37.3678C36.6759 73.3186 36.1151 72.7578 36.1151 72.0659V66.7214C36.1151 66.0297 36.6757 65.4688 37.3678 65.4688H44.0484C44.7403 65.4688 45.3011 66.0295 45.3011 66.7214V72.0659C45.3011 72.7578 44.7401 73.3186 44.0484 73.3186ZM38.6204 70.8134H42.7957V67.9742H38.6204V70.8134Z" fill="#918F90"/>
<path d="M79.6733 15.0643L64.9761 0.366914C64.4868 -0.122305 63.6938 -0.122305 63.2046 0.366914L48.5074 15.0641C48.2724 15.2991 48.1405 15.6177 48.1405 15.9499V80H78.7877C79.4794 80 80.0403 79.4393 80.0403 78.7474V15.9497C80.0402 15.6175 79.9082 15.2991 79.6733 15.0643Z" fill="#FFD791"/>
<path d="M64.0901 10.6055C61.1384 10.6055 58.7456 12.9983 58.7456 15.95V27.975H69.4345V15.95C69.4347 12.9984 67.0419 10.6055 64.0901 10.6055Z" fill="#6DDAE1"/>
<path d="M61.4179 37.3281H54.7373V42.6727H61.4179V37.3281Z" fill="#6DDAE1"/>
<path d="M61.418 43.9241H54.7374C54.0455 43.9241 53.4847 43.3633 53.4847 42.6714V37.3269C53.4847 36.6352 54.0454 36.0742 54.7374 36.0742H61.418C62.1099 36.0742 62.6707 36.635 62.6707 37.3269V42.6714C62.6707 43.3631 62.1097 43.9241 61.418 43.9241ZM55.9901 41.4187H60.1654V38.5795H55.9901V41.4187Z" fill="#FBE9C8"/>
<path d="M73.443 37.3281H66.7623V42.6727H73.443V37.3281Z" fill="#6DDAE1"/>
<path d="M73.4429 43.9241H66.7623C66.0704 43.9241 65.5096 43.3633 65.5096 42.6714V37.3269C65.5096 36.6352 66.0703 36.0742 66.7623 36.0742H73.4429C74.1348 36.0742 74.6956 36.635 74.6956 37.3269V42.6714C74.6956 43.3631 74.1348 43.9241 73.4429 43.9241ZM68.015 41.4187H72.1903V38.5795H68.015V41.4187Z" fill="#FBE9C8"/>
<path d="M61.4179 52.0234H54.7373V57.368H61.4179V52.0234Z" fill="#6DDAE1"/>
<path d="M61.418 58.6231H54.7374C54.0455 58.6231 53.4847 58.0623 53.4847 57.3705V52.0261C53.4847 51.3344 54.0454 50.7734 54.7374 50.7734H61.418C62.1099 50.7734 62.6707 51.3342 62.6707 52.0261V57.3706C62.6707 58.0623 62.1097 58.6231 61.418 58.6231ZM55.9901 56.118H60.1654V53.2787H55.9901V56.118Z" fill="#FBE9C8"/>
<path d="M73.443 52.0234H66.7623V57.368H73.443V52.0234Z" fill="#6DDAE1"/>
<path d="M73.443 58.6192H66.7624C66.0705 58.6192 65.5098 58.0584 65.5098 57.3666V52.0222C65.5098 51.3305 66.0704 50.7695 66.7624 50.7695H73.443C74.1349 50.7695 74.6957 51.3303 74.6957 52.0222V57.3667C74.6957 58.0584 74.1349 58.6192 73.443 58.6192ZM68.0151 56.1141H72.1904V53.2748H68.0151V56.1141Z" fill="#FBE9C8"/>
<path d="M64.0902 9.35156C60.4527 9.35156 57.4932 12.3111 57.4932 15.9486V27.9736C57.4932 28.6653 58.0538 29.2262 58.7458 29.2262H69.4347C70.1266 29.2262 70.6874 28.6655 70.6874 27.9736V15.9486C70.6874 12.3109 67.7279 9.35156 64.0902 9.35156ZM64.0902 11.8567C65.9097 11.8567 67.4549 13.0508 67.9852 14.6959H60.1952C60.7255 13.0508 62.2708 11.8567 64.0902 11.8567ZM59.9983 17.2013H62.8375V26.7211H59.9983V17.2013ZM65.3429 26.7211V17.2013H68.1821V26.7211H65.3429Z" fill="#FBE9C8"/>
<path d="M32.9928 15.0643L18.2955 0.366914C17.8061 -0.122305 17.0132 -0.122305 16.5239 0.366914L1.82659 15.0643C1.59159 15.2991 1.45972 15.6175 1.45972 15.9497V78.7474C1.45972 79.4391 2.0205 80 2.71237 80H33.3596V15.9497C33.3596 15.6175 33.2275 15.2991 32.9928 15.0643Z" fill="#FFD791"/>
<path d="M17.4096 10.6055C14.4579 10.6055 12.0651 12.9983 12.0651 15.95V27.975H22.754V15.95C22.7541 12.9984 20.3613 10.6055 17.4096 10.6055Z" fill="#6DDAE1"/>
<path d="M14.7374 37.3281H8.05676V42.6727H14.7374V37.3281Z" fill="#6DDAE1"/>
<path d="M14.7374 43.9241H8.05673C7.36486 43.9241 6.80408 43.3633 6.80408 42.6714V37.3269C6.80408 36.6352 7.3647 36.0742 8.05673 36.0742H14.7374C15.4292 36.0742 15.99 36.635 15.99 37.3269V42.6714C15.99 43.3631 15.4292 43.9241 14.7374 43.9241ZM9.30939 41.4187H13.4847V38.5795H9.30939V41.4187Z" fill="#FBE9C8"/>
<path d="M26.7625 37.3281H20.0819V42.6727H26.7625V37.3281Z" fill="#6DDAE1"/>
<path d="M26.7624 43.9241H20.0818C19.3899 43.9241 18.8291 43.3633 18.8291 42.6714V37.3269C18.8291 36.6352 19.3897 36.0742 20.0818 36.0742H26.7624C27.4543 36.0742 28.015 36.635 28.015 37.3269V42.6714C28.015 43.3631 27.4543 43.9241 26.7624 43.9241ZM21.3344 41.4187H25.5097V38.5795H21.3344V41.4187Z" fill="#FBE9C8"/>
<path d="M14.7374 52.0234H8.05676V57.368H14.7374V52.0234Z" fill="#6DDAE1"/>
<path d="M14.7374 58.6231H8.05673C7.36486 58.6231 6.80408 58.0623 6.80408 57.3705V52.0261C6.80408 51.3344 7.3647 50.7734 8.05673 50.7734H14.7374C15.4292 50.7734 15.99 51.3342 15.99 52.0261V57.3706C15.99 58.0623 15.4292 58.6231 14.7374 58.6231ZM9.30939 56.118H13.4847V53.2787H9.30939V56.118Z" fill="#FBE9C8"/>
<path d="M26.7625 52.0234H20.0819V57.368H26.7625V52.0234Z" fill="#6DDAE1"/>
<path d="M26.7624 58.6192H20.0818C19.3899 58.6192 18.8291 58.0584 18.8291 57.3666V52.0222C18.8291 51.3305 19.3897 50.7695 20.0818 50.7695H26.7624C27.4543 50.7695 28.015 51.3303 28.015 52.0222V57.3667C28.015 58.0584 27.4543 58.6192 26.7624 58.6192ZM21.3344 56.1141H25.5097V53.2748H21.3344V56.1141Z" fill="#FBE9C8"/>
<path d="M17.4095 9.35156C13.7719 9.35156 10.8125 12.3111 10.8125 15.9486V27.9736C10.8125 28.6653 11.3731 29.2262 12.0652 29.2262H22.7541C23.4459 29.2262 24.0067 28.6655 24.0067 27.9736V15.9486C24.0067 12.3109 21.0472 9.35156 17.4095 9.35156ZM17.4095 11.8567C19.2291 11.8567 20.7742 13.0508 21.3045 14.6959H13.5147C14.045 13.0508 15.5902 11.8567 17.4095 11.8567ZM13.3178 17.2013H16.157V26.7211H13.3178V17.2013ZM18.6622 26.7211V17.2013H21.5014V26.7211H18.6622Z" fill="#FBE9C8"/>
<path d="M1.45972 69.2266V78.7464C1.45972 79.4381 2.0205 79.9991 2.71237 79.9991H33.3596V69.2266H1.45972Z" fill="#F8BE73"/>
<path d="M48.1404 69.2266V79.9991H78.7876C79.4793 79.9991 80.0402 79.4383 80.0402 78.7464V69.2266H48.1404Z" fill="#F8BE73"/>
<path d="M70.7707 79.9986C70.0788 79.9986 69.5181 79.4378 69.5181 78.7459V70.7292C69.5181 70.0375 70.0787 69.4766 70.7707 69.4766C71.4626 69.4766 72.0234 70.0373 72.0234 70.7292V78.7459C72.0234 79.4377 71.4624 79.9986 70.7707 79.9986Z" fill="#918F90"/>
<path d="M70.7707 61.4609C67.1331 61.4609 64.1737 64.4205 64.1737 68.058C64.1737 71.6956 67.1332 74.655 70.7707 74.655C74.4082 74.655 77.3678 71.6955 77.3678 68.058C77.3678 64.4203 74.4082 61.4609 70.7707 61.4609Z" fill="#C4DF64"/>
<path d="M73.5265 71.9006C69.889 71.9006 66.9295 68.9411 66.9295 65.3036C66.9295 64.1928 67.2067 63.1458 67.6936 62.2266C65.6023 63.3344 64.1737 65.5327 64.1737 68.0594C64.1737 71.697 67.1332 74.6564 70.7707 74.6564C73.2975 74.6564 75.4959 73.2278 76.6037 71.1364C75.6843 71.6234 74.6373 71.9006 73.5265 71.9006Z" fill="#96CA62"/>
<path d="M57.4931 79.9986C56.8013 79.9986 56.2405 79.4378 56.2405 78.7459V70.7292C56.2405 70.0375 56.8011 69.4766 57.4931 69.4766C58.1852 69.4766 58.7458 70.0373 58.7458 70.7292V78.7459C58.7458 79.4377 58.1849 79.9986 57.4931 79.9986Z" fill="#918F90"/>
<path d="M57.4932 61.4609C53.8557 61.4609 50.8961 64.4205 50.8961 68.058C50.8961 71.6956 53.8557 74.655 57.4932 74.655C61.1307 74.655 64.0902 71.6955 64.0902 68.058C64.0902 64.4203 61.1307 61.4609 57.4932 61.4609Z" fill="#C4DF64"/>
<path d="M60.2489 71.9006C56.6113 71.9006 53.6519 68.9411 53.6519 65.3036C53.6519 64.1928 53.9291 63.1458 54.416 62.2266C52.3247 63.3344 50.8961 65.5327 50.8961 68.0594C50.8961 71.697 53.8557 74.6564 57.4932 74.6564C60.0199 74.6564 62.2183 73.2278 63.3261 71.1364C62.4067 71.6234 61.3597 71.9006 60.2489 71.9006Z" fill="#96CA62"/>
<path d="M24.0902 79.9986C23.3983 79.9986 22.8375 79.4378 22.8375 78.7459V70.7292C22.8375 70.0375 23.3981 69.4766 24.0902 69.4766C24.7821 69.4766 25.3428 70.0373 25.3428 70.7292V78.7459C25.3428 79.4377 24.7821 79.9986 24.0902 79.9986Z" fill="#918F90"/>
<path d="M24.0902 61.4609C20.4527 61.4609 17.4932 64.4205 17.4932 68.058C17.4932 71.6956 20.4527 74.655 24.0902 74.655C27.7277 74.655 30.6872 71.6955 30.6872 68.058C30.6872 64.4203 27.7279 61.4609 24.0902 61.4609Z" fill="#C4DF64"/>
<path d="M26.846 71.9006C23.2083 71.9006 20.2489 68.9411 20.2489 65.3036C20.2489 64.1928 20.5261 63.1458 21.013 62.2266C18.9218 63.3344 17.4932 65.5327 17.4932 68.0594C17.4932 71.697 20.4527 74.6564 24.0902 74.6564C26.6169 74.6564 28.8154 73.2278 29.9232 71.1364C29.0038 71.6234 27.9568 71.9006 26.846 71.9006Z" fill="#96CA62"/>
<path d="M10.8125 79.9986C10.1206 79.9986 9.55981 79.4378 9.55981 78.7459V70.7292C9.55981 70.0375 10.1204 69.4766 10.8125 69.4766C11.5043 69.4766 12.0651 70.0373 12.0651 70.7292V78.7459C12.0651 79.4377 11.5043 79.9986 10.8125 79.9986Z" fill="#918F90"/>
<path d="M10.8125 61.4609C7.17499 61.4609 4.21545 64.4205 4.21545 68.058C4.21545 71.6956 7.17499 74.655 10.8125 74.655C14.45 74.655 17.4095 71.6955 17.4095 68.058C17.4095 64.4203 14.4501 61.4609 10.8125 61.4609Z" fill="#C4DF64"/>
<path d="M13.5683 71.9006C9.93061 71.9006 6.97124 68.9411 6.97124 65.3036C6.97124 64.1928 7.24842 63.1458 7.7353 62.2266C5.64405 63.3342 4.21545 65.5327 4.21545 68.0594C4.21545 71.697 7.17499 74.6564 10.8125 74.6564C13.3392 74.6564 15.5376 73.2278 16.6455 71.1364C15.7261 71.6234 14.679 71.9006 13.5683 71.9006Z" fill="#96CA62"/>
</g>
<defs>
<clipPath id="clip0_572_20169">
<rect width="80" height="80" fill="white" transform="translate(0.75)"/>
</clipPath>
</defs>
</svg>
