<svg width="30" height="30" viewBox="0 0 30 30" fill="none" xmlns="http://www.w3.org/2000/svg">
<path d="M27.2526 16.7413H7.40777V6.12432C7.40777 4.92224 8.385 3.94412 9.58618 3.94412C10.6659 3.94412 11.5623 4.73363 11.7343 5.76491C10.0703 5.98204 8.7848 7.30501 8.7848 8.90422C8.7848 9.15046 8.9844 9.34976 9.23034 9.34976H15.1965C15.4424 9.34976 15.642 9.15046 15.642 8.90422C15.642 7.28571 14.3259 5.94877 12.6334 5.7563C12.4507 4.2358 11.1551 3.05273 9.58618 3.05273C7.89371 3.05273 6.51668 4.43066 6.51668 6.12402V16.7411H2.44945C2.20351 16.7411 2.00391 16.9404 2.00391 17.1866C2.00391 17.4328 2.20351 17.6321 2.44945 17.6321H4.35817L6.53005 26.3131C6.57965 26.5113 6.75787 26.6506 6.96223 26.6506H22.741C22.9454 26.6506 23.1236 26.5116 23.1732 26.3131L25.3451 17.6321H27.2523C27.4983 17.6321 27.6979 17.4328 27.6979 17.1866C27.6979 16.9404 27.4989 16.7413 27.2526 16.7413ZM14.7028 8.45897H9.7246C9.95569 7.41283 10.984 6.62125 12.2143 6.62125C13.444 6.62155 14.472 7.41283 14.7028 8.45897ZM22.3935 25.7598H7.31034L5.27688 17.6324H24.427L22.3935 25.7598Z" fill="#D49633" stroke="#D49633" strokeWidth="1.2"/>
<rect x="8.40039" y="20.4004" width="13.2" height="2.4" rx="1.2" fill="#D49633"/>
</svg>
