<svg width="30" height="24" viewBox="0 0 30 24" fill="none" xmlns="http://www.w3.org/2000/svg">
<path d="M6.5 22V20.375H23.5V22C23.5 22.3978 23.658 22.7794 23.9393 23.0607C24.2206 23.342 24.6022 23.5 25 23.5H27.5C27.8978 23.5 28.2794 23.342 28.5607 23.0607C28.842 22.7794 29 22.3978 29 22V14.5V14.4999C28.9996 13.7551 28.8191 13.0215 28.474 12.3616C28.1492 11.7406 27.6877 11.2022 27.125 10.7866V5.125V5.12472C27.1236 3.89859 26.6359 2.72309 25.7689 1.85609C24.9019 0.989094 23.7264 0.501399 22.5003 0.5H22.5L7.5 0.5L7.49971 0.5C6.27359 0.501399 5.09809 0.989094 4.23109 1.85609C3.36409 2.72309 2.8764 3.89859 2.875 5.12471V5.125V10.7866C2.31227 11.2022 1.8508 11.7406 1.52605 12.3616C1.18089 13.0215 1.00041 13.7551 1 14.4999V14.5V22C1 22.3978 1.15804 22.7794 1.43934 23.0607C1.72064 23.342 2.10218 23.5 2.5 23.5H5C5.39782 23.5 5.77936 23.342 6.06066 23.0607C6.34196 22.7794 6.5 22.3978 6.5 22ZM4.625 5.1253C4.625 5.12524 4.625 5.12517 4.625 5.12511C4.62596 4.36288 4.92918 3.63214 5.46816 3.09316C6.00714 2.55418 6.73788 2.25096 7.50011 2.25H22.4999C23.2621 2.25096 23.9929 2.55418 24.5318 3.09316C25.0709 3.63219 25.3741 4.363 25.375 5.1253V9.98798C25.1284 9.93227 24.8775 9.89698 24.625 9.88251V8.875C24.625 8.14565 24.3353 7.44618 23.8195 6.93046C23.3038 6.41473 22.6043 6.125 21.875 6.125H18.125C17.3957 6.125 16.6962 6.41473 16.1805 6.93046C15.6647 7.44618 15.375 8.14565 15.375 8.875V9.875H14.625V8.875C14.625 8.14565 14.3353 7.44618 13.8195 6.93046C13.3038 6.41473 12.6043 6.125 11.875 6.125H8.125C7.39565 6.125 6.69618 6.41473 6.18046 6.93046C5.66473 7.44618 5.375 8.14565 5.375 8.875V9.88251C5.12248 9.89698 4.87163 9.93227 4.625 9.98798L4.625 5.1253ZM22.875 9.875H17.125V8.875C17.125 8.60978 17.2304 8.35543 17.4179 8.16789C17.6054 7.98036 17.8598 7.875 18.125 7.875H21.875C22.1402 7.875 22.3946 7.98036 22.5821 8.16789C22.7696 8.35543 22.875 8.60978 22.875 8.875V9.875ZM12.875 9.875H7.125V8.875C7.125 8.60978 7.23036 8.35543 7.41789 8.16789C7.60543 7.98036 7.85978 7.875 8.125 7.875H11.875C12.1402 7.875 12.3946 7.98036 12.5821 8.16789C12.7696 8.35543 12.875 8.60978 12.875 8.875V9.875ZM27.25 14.875H2.75V14.5001C2.75096 13.7379 3.05418 13.0071 3.59316 12.4682C4.13219 11.9291 4.863 11.6259 5.6253 11.625H24.3747C25.137 11.6259 25.8678 11.9291 26.4068 12.4682C26.9459 13.0072 27.2491 13.738 27.25 14.5003V14.875ZM4.75 21.75H2.75V20.375H4.75V21.75ZM2.75 18.625V16.625H27.25V18.625H2.75ZM27.25 21.75H25.25V20.375H27.25V21.75Z" fill="#D49633" stroke="#D49633" strokeWidth="0.5"/>
</svg>
