<svg width="32" height="20" viewBox="0 0 32 20" fill="none" xmlns="http://www.w3.org/2000/svg">
<path d="M25.9998 8C25.3757 8.00017 24.7555 8.09825 24.1618 8.29067L21.0305 1.33333H25.3332C25.51 1.33333 25.6796 1.40357 25.8046 1.5286C25.9296 1.65362 25.9998 1.82319 25.9998 2C25.9998 2.17681 25.9296 2.34638 25.8046 2.4714C25.6796 2.59643 25.51 2.66667 25.3332 2.66667H23.9998C23.823 2.66667 23.6535 2.7369 23.5284 2.86193C23.4034 2.98695 23.3332 3.15652 23.3332 3.33333C23.3332 3.51014 23.4034 3.67971 23.5284 3.80474C23.6535 3.92976 23.823 4 23.9998 4H25.3332C25.8636 4 26.3723 3.78929 26.7474 3.41421C27.1225 3.03914 27.3332 2.53043 27.3332 2C27.3332 1.46957 27.1225 0.960859 26.7474 0.585786C26.3723 0.210713 25.8636 0 25.3332 0H19.9998C19.8885 9.51911e-06 19.779 0.0278883 19.6812 0.0810935C19.5835 0.134299 19.5006 0.211137 19.4401 0.304598C19.3797 0.398059 19.3436 0.505169 19.3352 0.616157C19.3267 0.727145 19.3462 0.838478 19.3918 0.94L21.0665 4.66667H12.5332L11.0332 1.33333H12.6665C12.8433 1.33333 13.0129 1.2631 13.1379 1.13807C13.2629 1.01305 13.3332 0.843478 13.3332 0.666667C13.3332 0.489856 13.2629 0.320287 13.1379 0.195262C13.0129 0.070238 12.8433 0 12.6665 0H7.99985C7.82304 0 7.65347 0.070238 7.52844 0.195262C7.40342 0.320287 7.33318 0.489856 7.33318 0.666667C7.33318 0.843478 7.40342 1.01305 7.52844 1.13807C7.65347 1.2631 7.82304 1.33333 7.99985 1.33333H9.56851L11.2978 5.176L8.84451 8.71933C7.71358 8.10972 6.41683 7.87922 5.14509 8.06176C3.87335 8.2443 2.69379 8.83024 1.77998 9.73335C0.866174 10.6365 0.266388 11.809 0.0688849 13.0785C-0.128619 14.348 0.0865911 15.6474 0.682845 16.7854C1.2791 17.9235 2.2249 18.8401 3.38108 19.4003C4.53726 19.9606 5.84275 20.135 7.10543 19.8977C8.36811 19.6605 9.5213 19.0242 10.3953 18.0826C11.2693 17.1409 11.818 15.9435 11.9605 14.6667H15.9998C16.1076 14.6666 16.2138 14.6405 16.3092 14.5904C16.4046 14.5404 16.4865 14.468 16.5478 14.3793L21.9365 6.596L22.9485 8.84333C21.7031 9.58515 20.7691 10.7536 20.3199 12.1319C19.8706 13.5101 19.9367 15.0045 20.5057 16.3378C21.0748 17.671 22.1083 18.7525 23.4143 19.3816C24.7203 20.0106 26.2102 20.1445 27.6074 19.7583C29.0047 19.3721 30.2143 18.4922 31.0119 17.2817C31.8096 16.0713 32.1409 14.6125 31.9446 13.1763C31.7482 11.74 31.0374 10.4238 29.9442 9.47186C28.8509 8.51993 27.4495 7.99695 25.9998 8ZM11.9365 6.59533L14.9685 13.3333H11.9605C11.7926 11.8419 11.0704 10.468 9.93718 9.484L11.9365 6.59533ZM10.6132 13.3333H7.27251L9.17318 10.588C9.95294 11.3116 10.4612 12.2805 10.6132 13.3333ZM5.99985 18.6667C5.29523 18.6684 4.59937 18.5106 3.96446 18.205C3.32955 17.8995 2.77208 17.4541 2.33386 16.9023C1.89565 16.3506 1.58807 15.7067 1.43419 15.0191C1.28032 14.3315 1.28415 13.618 1.4454 12.9321C1.60665 12.2461 1.92113 11.6056 2.36525 11.0586C2.80937 10.5116 3.37159 10.0722 4.00975 9.7735C4.6479 9.47478 5.34542 9.32443 6.04997 9.33376C6.75452 9.34308 7.44782 9.51182 8.07785 9.82733L5.45185 13.6207C5.38264 13.7207 5.34212 13.8377 5.33466 13.9591C5.3272 14.0805 5.3531 14.2016 5.40954 14.3094C5.46598 14.4171 5.55082 14.5074 5.65487 14.5703C5.75892 14.6333 5.87822 14.6666 5.99985 14.6667H10.6132C10.453 15.7764 9.89864 16.7914 9.0515 17.5259C8.20436 18.2604 7.12108 18.6654 5.99985 18.6667ZM16.1238 12.65L13.1332 6H20.7272L16.1238 12.65ZM25.9998 18.6667C24.9897 18.6675 24.0067 18.3403 23.1986 17.7342C22.3905 17.1282 21.801 16.2761 21.5189 15.3062C21.2368 14.3363 21.2773 13.301 21.6343 12.3561C21.9913 11.4112 22.6455 10.6077 23.4985 10.0667L25.3918 14.2733C25.4657 14.4324 25.5993 14.5559 25.7637 14.6171C25.928 14.6783 26.1098 14.6724 26.2698 14.6005C26.4297 14.5285 26.5549 14.3965 26.6182 14.233C26.6815 14.0694 26.6778 13.8875 26.6078 13.7267L24.7138 9.51733C25.3562 9.33142 26.0309 9.28572 26.6925 9.38333C27.354 9.48093 27.9868 9.71956 28.548 10.083C29.1093 10.4465 29.5859 10.9264 29.9455 11.4901C30.3052 12.0539 30.5395 12.6883 30.6325 13.3505C30.7256 14.0126 30.6753 14.6871 30.485 15.3281C30.2947 15.9691 29.9688 16.5618 29.5295 17.0659C29.0902 17.57 28.5477 17.9739 27.9387 18.25C27.3297 18.5262 26.6685 18.6683 25.9998 18.6667Z" fill="white"/>
</svg>
