<svg width="21" height="20" viewBox="0 0 21 20" fill="none" xmlns="http://www.w3.org/2000/svg">
<g clip-path="url(#clip0_588_21231)">
<path d="M0.548249 15.4294L2.62926 15.8561V11.7678L5.64508 12.2329V16.3996L8.06134 16.9465L18.6782 15.6411L18.7435 9.95278L20.125 9.89435L19.6983 9.26581L15.49 3.05469L4.32553 3.12498L4.33824 3.15459H4.32257L0.125 9.92693H0.548249V15.4294ZM18.7485 9.52904L7.69555 9.99762L4.96634 3.55287L15.312 3.5253L19.3487 9.50364L18.7485 9.52904ZM15.3628 13.1015L11.13 13.4897V10.9852L15.3628 10.7384V13.1015Z" fill="#FFB000"/>
<path d="M8.10894 9.5402L18.3259 9.1363L16.7301 6.75L7.03174 6.97136L8.10894 9.5402ZM9.02874 7.99571L7.93671 8.03506L7.66241 7.38067L8.73792 7.3557L9.02874 7.99571ZM8.38576 9.10509L8.1119 8.45198L9.21832 8.41219L9.51205 9.05808L8.38576 9.10509ZM9.96837 9.03905L9.67592 8.39612L10.8141 8.35504L11.0825 8.99249L9.96837 9.03905ZM11.5337 8.97345L11.2665 8.33853L12.5253 8.29325L12.8106 8.92011L11.5337 8.97345ZM13.2665 8.90108L12.9825 8.27674L14.1114 8.23611L14.3924 8.85407L13.2665 8.90108ZM14.8487 8.83504L14.569 8.2196L15.639 8.18109L15.9162 8.7906L14.8487 8.83504ZM16.3725 8.77112L16.0965 8.16414L17.0451 8.12983L17.4401 8.72624L16.3725 8.77112ZM16.4148 7.17878L16.7708 7.71632L15.9069 7.74766L15.6563 7.19613L16.4148 7.17878ZM15.1962 7.20716L15.4498 7.76461L14.3797 7.80312L14.1203 7.23212L15.1962 7.20716ZM13.6597 7.2423L13.9222 7.81923L12.7933 7.85987L12.5246 7.26855L13.6597 7.2423ZM12.064 7.27908L12.3357 7.87633L11.0909 7.92122L10.8327 7.30746L12.064 7.27908ZM10.3776 7.31804L10.6385 7.93773L9.48629 7.9792L9.19805 7.34513L10.3776 7.31804Z" fill="#165C92"/>
<path d="M5.75928 4L6.8382 6.57305L8.61043 6.5337L8.61132 6.53582L8.61592 6.5337L16.5221 6.36811L14.9697 4H5.75928V4ZM12.9422 4.42325L13.2122 4.98239L11.8646 5.00102L11.6017 4.42325H12.9422V4.42325ZM11.1365 4.42325L11.4024 5.0078L10.163 5.02515L9.90992 4.42325H11.1365ZM9.4506 4.42325L9.70622 5.03148L8.4 5.04967L8.11556 4.42325H9.4506ZM7.65088 4.42325L7.93873 5.05604L6.6689 5.07384L6.39543 4.42325H7.65088V4.42325ZM7.11711 6.14342L6.84493 5.49456L8.12955 5.47677L8.41948 6.11465L7.11711 6.14342ZM8.88004 6.10452L8.5918 5.47004L9.88368 5.45225L10.1465 6.07659L8.88004 6.10452ZM10.6011 6.0664L10.3399 5.44587L11.5937 5.42852L11.8708 6.03847L10.6011 6.0664ZM12.3315 6.02834L12.0558 5.42224L13.4155 5.4032L13.7024 5.99788L12.3315 6.02834ZM14.1675 5.98766L13.8823 5.39678L15.321 5.37691L15.677 5.95468L14.1675 5.98766ZM13.6792 4.97606L13.412 4.42325H14.7331L15.062 4.95698L13.6792 4.97606Z" fill="#165C92"/>
</g>
<defs>
<clipPath id="clip0_588_21231">
<rect width="20" height="20" fill="white" transform="translate(0.125)"/>
</clipPath>
</defs>
</svg>
