<svg width="21" height="20" viewBox="0 0 21 20" fill="none" xmlns="http://www.w3.org/2000/svg">
<g clip-path="url(#clip0_584_20577)">
<path d="M10.1877 5.54654C7.61053 5.64443 5.55393 7.78829 5.55713 10.3673C5.55877 11.6734 6.08002 12.8576 6.92526 13.7245C7.5883 14.4045 7.96623 15.3122 7.96623 16.2618V16.8937H12.7845V16.2619C12.7845 15.3118 13.1631 14.4042 13.8263 13.7237C14.6724 12.8555 15.1937 11.6693 15.1937 10.3612C15.1937 7.6379 12.9343 5.44224 10.1877 5.54654Z" fill="#FFEA8A"/>
<path d="M10.3755 5.54297V16.8933H12.7846V16.2616C12.7846 15.3114 13.1631 14.4038 13.8264 13.7233C14.6725 12.8552 15.1938 11.6689 15.1938 10.3609C15.1938 7.6998 13.0365 5.54301 10.3755 5.54297Z" fill="#FFDB2D"/>
<path d="M20.3725 10.1767C20.3218 7.91583 19.4918 5.71474 18.0354 3.97908C16.3185 1.93298 13.9077 0.677943 11.2468 0.44517C8.58591 0.212357 5.99388 1.02962 3.94782 2.74658C1.90173 4.46345 0.646692 6.87431 0.413919 9.53509C0.181106 12.1959 0.998411 14.7881 2.71532 16.8341L3.95747 15.7919C2.519 14.0776 1.83423 11.9058 2.02931 9.67646C2.22439 7.44712 3.27583 5.42724 4.99013 3.98873C6.70443 2.55025 8.87614 1.86517 11.1056 2.06056C13.3349 2.25556 15.3548 3.30712 16.7933 5.02138C19.2136 7.90587 19.4162 11.9803 17.3383 15.07L16.1442 13.9663L16.282 17.4457L19.7609 17.3093L18.5409 16.1817C19.7713 14.4425 20.4205 12.3202 20.3725 10.1767Z" fill="#6DC180"/>
<path d="M11.1865 12.0273H9.56494V16.892H11.1865V12.0273Z" fill="#FFAF33"/>
<path d="M10.3754 19.5946C12.1665 19.5946 13.6185 18.1427 13.6185 16.3516H7.13232C7.13232 18.1427 8.58428 19.5946 10.3754 19.5946Z" fill="#DFDFE1"/>
<path d="M10.3755 16.3516V19.5946C12.1666 19.5946 13.6186 18.1427 13.6186 16.3516H10.3755Z" fill="#CFCDD2"/>
<path d="M20.3727 10.176C20.322 7.91508 19.492 5.71398 18.0356 3.97832C16.3187 1.93223 13.9078 0.677188 11.247 0.444414C10.9554 0.418906 10.6648 0.406797 10.3755 0.40625V2.02773C10.6179 2.02816 10.8614 2.0384 11.1057 2.0598C13.335 2.2548 15.3549 3.30637 16.7934 5.02063C19.2137 7.90512 19.4163 11.9795 17.3383 15.0692L16.1443 13.9656L16.2821 17.4449L19.761 17.3085L18.541 16.1809C19.7715 14.4417 20.4207 12.3195 20.3727 10.176Z" fill="#5CA15D"/>
</g>
<defs>
<clipPath id="clip0_584_20577">
<rect width="20" height="20" fill="white" transform="translate(0.375)"/>
</clipPath>
</defs>
</svg>
