<svg width="21" height="20" viewBox="0 0 21 20" fill="none" xmlns="http://www.w3.org/2000/svg">
<g clip-path="url(#clip0_584_20556)">
<path d="M17.5417 14.8546V15.8313C17.5417 16.2916 17.1686 16.6646 16.7084 16.6646C16.2482 16.6646 15.875 16.2915 15.875 15.8313V14.8546C16.1854 14.7445 16.4678 14.575 16.7083 14.3594C16.9489 14.575 17.2312 14.7445 17.5417 14.8546Z" fill="#806749"/>
<path d="M5.04182 14.3594C5.28236 14.575 5.56471 14.7445 5.87514 14.8546V15.8313C5.87514 16.2916 5.50201 16.6646 5.04182 16.6646C4.58162 16.6646 4.2085 16.2915 4.2085 15.8313V14.8546C4.51893 14.7445 4.80123 14.575 5.04182 14.3594Z" fill="#806749"/>
<path d="M15.186 3.33203C16.485 3.33203 17.5417 4.27465 17.5417 5.43324V7.91914C16.6117 8.24902 15.9329 9.11418 15.8786 10.1426C15.6168 10.0493 15.3352 9.99801 15.0417 9.99801H10.875V3.33203H15.186Z" fill="#FFB655"/>
<path d="M5.7315 13.3333C5.824 13.0725 5.87482 12.7921 5.87482 12.5V10.2778C5.87482 10.2331 5.87354 10.1887 5.87123 10.1446C6.13311 10.0512 6.41467 10 6.70818 10H10.8748V13.3333V15H6.70814C6.416 15 6.13564 14.9492 5.87482 14.8567C5.56439 14.7466 5.28205 14.577 5.0415 14.3614C5.35045 14.0845 5.5901 13.732 5.7315 13.3333Z" fill="#FF5023"/>
<path d="M17.5416 7.92066C17.8025 7.82816 18.0828 7.77734 18.375 7.77734C19.7535 7.77734 20.875 8.89883 20.875 10.2773V12.4996C20.875 13.8781 19.7535 14.9996 18.375 14.9996C18.0828 14.9996 17.8025 14.9488 17.5416 14.8562C17.2312 14.7461 16.9489 14.5766 16.7083 14.361C16.3994 14.0841 16.1597 13.7316 16.0183 13.3329C15.9258 13.0721 15.875 12.7917 15.875 12.4996V10.2774C15.875 10.2327 15.8763 10.1883 15.8786 10.1442C15.9329 9.1157 16.6116 8.25055 17.5416 7.92066Z" fill="#FF5023"/>
<path d="M15.8786 10.1446C15.8763 10.1887 15.875 10.2332 15.875 10.2778V12.5C15.875 12.7921 15.9258 13.0725 16.0183 13.3334C16.1597 13.732 16.3994 14.0845 16.7083 14.3614C16.4678 14.577 16.1854 14.7466 15.875 14.8567C15.6142 14.9492 15.3338 15 15.0417 15H10.875V13.3333V10H15.0417C15.3352 10 15.6168 10.0513 15.8786 10.1446Z" fill="#FF6243"/>
<path d="M3.375 7.77582C3.66715 7.77582 3.9475 7.82664 4.20832 7.91914V5.43324C4.20832 4.27465 5.26516 3.33203 6.5641 3.33203H10.875V9.99805H6.70832C6.4148 9.99805 6.1332 10.0493 5.87137 10.1426C5.87371 10.1867 5.87496 10.2312 5.87496 10.2758V12.498C5.87496 12.7902 5.82414 13.0705 5.73164 13.3314C5.59023 13.73 5.35059 14.0825 5.04164 14.3594C4.80109 14.575 4.51875 14.7446 4.20832 14.8547C3.9475 14.9472 3.66715 14.998 3.375 14.998C1.99648 14.998 0.875 13.8765 0.875 12.498V10.2758C0.875 8.8973 1.99648 7.77582 3.375 7.77582Z" fill="#EE8700"/>
</g>
<defs>
<clipPath id="clip0_584_20556">
<rect width="20" height="20" fill="white" transform="translate(0.875)"/>
</clipPath>
</defs>
</svg>
