<svg width="31" height="30" viewBox="0 0 31 30" fill="none" xmlns="http://www.w3.org/2000/svg">
<path d="M7.41992 14.8027H9.32254C9.32254 14.8027 9.98113 18.0591 13.4936 17.9494C17.0061 17.8396 17.2429 17.7664 17.2429 17.7664L16.0914 19.9987C16.0914 19.9987 8.95663 21.535 7.41992 14.8027Z" fill="#473B37"/>
<path d="M2.59879 15.6087H7.26114C7.69314 15.6109 8.12263 15.6745 8.53676 15.7975C9.07932 15.9556 10.0562 16.1162 11.4082 15.8488C12.4879 15.6352 13.1278 15.0919 13.4981 14.6013C13.7085 14.3248 13.8383 13.9954 13.8729 13.6496C13.9076 13.3038 13.8458 12.9552 13.6945 12.6424C13.3071 11.8433 12.3742 10.7911 10.1276 10.3037C9.65671 10.2527 9.18074 10.277 8.71755 10.3758C8.35098 10.4612 7.96836 10.4487 7.60817 10.3394C6.72961 10.07 4.91196 9.79924 2.81196 11.1206C2.63003 11.2345 2.4823 11.3955 2.38444 11.5865C2.28658 11.7776 2.24224 11.9915 2.25611 12.2058C2.26999 12.42 2.34156 12.6264 2.46325 12.8032C2.58494 12.9801 2.7522 13.1207 2.94732 13.2102C2.96223 13.2169 2.97732 13.2237 2.99276 13.2304C2.99276 13.2304 1.20158 13.3716 1.3462 14.6183C1.36833 14.7899 1.43125 14.9536 1.52969 15.0958C1.62812 15.2381 1.75921 15.3546 1.91196 15.4358C2.12195 15.5523 2.3587 15.6119 2.59879 15.6087Z" fill="#9FC2AB"/>
<path d="M13.4982 14.5998C13.7087 14.3233 13.8384 13.9939 13.8731 13.6481C13.9078 13.3024 13.846 12.9537 13.6946 12.641C13.318 11.8638 12.4248 10.8474 10.3096 10.3438C10.6354 10.7244 10.8405 11.1935 10.8987 11.6912C11.0065 12.7948 10.2431 13.7891 9.16755 14.0587C8.63099 14.1932 7.8832 14.2825 6.85288 14.2377H4.89917C4.77102 14.2381 4.64495 14.2053 4.53319 14.1426C4.42142 14.0799 4.32776 13.9894 4.26131 13.8799C4.19485 13.7703 4.15784 13.6454 4.15389 13.5173C4.14993 13.3892 4.17916 13.2623 4.23873 13.1488C4.24411 13.139 4.24958 13.1289 4.25523 13.1187C4.27537 13.0826 4.2872 13.0424 4.28985 13.0011C4.29251 12.9598 4.28593 12.9184 4.2706 12.88C4.25526 12.8415 4.23155 12.807 4.20119 12.7789C4.17083 12.7507 4.13458 12.7297 4.09508 12.7174C3.61129 12.5638 2.78285 12.193 2.49732 11.4047C2.38894 11.5466 2.31389 11.7112 2.27773 11.886C2.24158 12.0609 2.24525 12.2417 2.28847 12.415C2.33169 12.5883 2.41335 12.7496 2.5274 12.8871C2.64145 13.0245 2.78497 13.1345 2.94732 13.2089C2.96223 13.2157 2.97732 13.2225 2.99276 13.2292C2.99276 13.2292 1.20158 13.3704 1.3462 14.6171C1.36839 14.7886 1.43136 14.9523 1.52982 15.0945C1.62829 15.2367 1.75939 15.3532 1.91214 15.4343C2.12204 15.5507 2.3587 15.6103 2.5987 15.6073H7.26132C7.69331 15.6095 8.12281 15.673 8.53693 15.796C9.07949 15.9541 10.0563 16.1147 11.4084 15.8473C12.4881 15.6337 13.128 15.0905 13.4982 14.5998Z" fill="#698779"/>
<path d="M7.23145 22.1465H24.6216V22.4787C24.6215 22.8259 24.4836 23.1588 24.2381 23.4043C23.9926 23.6498 23.6596 23.7877 23.3124 23.7877H8.54059C8.19338 23.7877 7.8604 23.6497 7.61489 23.4042C7.36937 23.1587 7.23145 22.8257 7.23145 22.4785V22.1465Z" fill="#E8756D"/>
<path d="M15.9269 23.7891H8.54102C8.54102 23.7891 9.30302 25.4302 9.49846 26.9545C9.51723 27.1047 9.54822 27.2531 9.5911 27.3982C9.70983 27.7866 9.95053 28.1265 10.2775 28.3674C10.6045 28.6083 11.0004 28.7374 11.4065 28.7357H20.4473C20.8535 28.7374 21.2493 28.6083 21.5763 28.3674C21.9033 28.1265 22.144 27.7866 22.2628 27.3982C22.3056 27.2531 22.3366 27.1047 22.3554 26.9545C22.5508 25.4304 23.3128 23.7891 23.3128 23.7891H15.9269Z" fill="#E8756D"/>
<path d="M8.54102 23.7891C8.54102 23.7891 8.71449 24.1629 8.91699 24.719H22.9369C23.1398 24.1631 23.3128 23.7891 23.3128 23.7891H8.54102Z" fill="#BC4242"/>
<path d="M19.3477 15.3879C19.3477 15.3879 22.8602 16.4855 23.0431 13.4121H24.6218C24.6218 13.4121 24.9824 15.0951 23.0065 16.3391C21.0307 17.5832 20.7747 18.9971 20.7747 18.9971L19.3477 15.3879Z" fill="#9B7B76"/>
<path d="M12.331 7.75391H13.8221C13.8221 7.75391 13.852 10.0823 16.4898 10.0823L13.566 12.4972C13.6917 12.2239 13.7564 11.9266 13.7558 11.6258C13.7493 11.1432 13.5596 10.681 13.2253 10.3329C12.8786 9.96102 12.2002 9.05397 12.331 7.75391Z" fill="#473B37"/>
<path d="M16.1574 15.8477C16.1574 15.8477 17.3569 16.4837 15.9266 18.4983C14.4963 20.5129 11.6689 22.1467 11.6689 22.1467H19.4086C19.4086 22.1467 21.6001 16.8372 16.1574 15.8477Z" fill="#473B37"/>
<path d="M17.5712 7.75391C17.5712 7.75391 17.8182 9.34426 15.6626 10.4399C15.6626 10.4399 14.2589 11.0921 13.3644 12.1721C13.1556 12.4269 13.0017 12.7222 12.9125 13.0393C12.8233 13.3565 12.8006 13.6887 12.846 14.015C12.8913 14.3413 13.0036 14.6547 13.1758 14.9355C13.3481 15.2164 13.5766 15.4585 13.8469 15.6468C14.3732 16.019 15.1186 16.4062 16.1575 16.6955C16.1575 16.6955 19.1262 17.5083 19.1969 19.6996C19.1523 20.202 18.9923 20.6874 18.7292 21.1178C18.7292 21.1178 18.5115 21.8595 18.0209 22.1464H20.0801C20.0801 22.1464 22.5174 20.332 21.3438 17.3005C20.9673 16.3468 20.3028 15.5343 19.4428 14.9759C18.6406 14.449 17.7834 14.0111 16.8864 13.67C16.7389 13.6131 16.6075 13.5211 16.5036 13.4019C16.3998 13.2827 16.3266 13.14 16.2903 12.9862C16.2541 12.8323 16.2559 12.6719 16.2957 12.5189C16.3354 12.366 16.4119 12.225 16.5185 12.1082C16.8776 11.7132 17.2647 11.3446 17.6769 11.0053C19.091 9.83908 18.844 7.75391 18.844 7.75391H17.5712Z" fill="#9B7B76"/>
<path d="M23.0436 13.4121C23.0044 14.07 22.8124 14.5363 22.5352 14.8637L24.283 15.063C24.786 14.1806 24.6223 13.4121 24.6223 13.4121H23.0436Z" fill="#473B37"/>
<path d="M21.0312 13.8514H26.7753C26.7753 13.8514 29.4217 14.0596 29.6482 12.4926C29.6827 12.2808 29.6622 12.0637 29.5886 11.8621C29.5149 11.6605 29.3907 11.4813 29.2279 11.3416C29.2097 11.3266 29.1907 11.3118 29.171 11.2974C28.9809 11.161 28.8339 10.973 28.7474 10.7557C28.5505 10.2429 27.8485 9.35167 25.347 9.35167H23.5016C22.8338 9.34645 22.1778 9.52815 21.6078 9.87623C21.3892 10.0101 21.1895 10.1725 21.0137 10.3591C20.7461 10.6525 20.4384 10.9067 20.0998 11.1143C20.0892 11.1207 20.0785 11.1271 20.0678 11.1338C18.9259 11.8412 19.2594 13.6133 20.5867 13.8193C20.7338 13.8414 20.8824 13.8522 21.0312 13.8514Z" fill="#9FC2AB"/>
<path d="M17.5717 7.75391C17.5717 7.75391 17.6898 8.51723 17.0459 9.35097H18.7004C18.8403 8.83093 18.889 8.29059 18.8445 7.75391H17.5717Z" fill="#473B37"/>
<path d="M8.90489 8.34234C9.16245 8.33351 9.4209 8.33193 9.67845 8.33846L19.3473 8.58366C19.3473 8.58366 19.7427 8.62778 20.2441 8.32407C20.6096 8.10487 21.0321 7.99948 21.4577 8.02134C22.745 8.08222 25.341 8.01966 26.5655 6.67681C26.9787 6.22354 26.8401 5.48563 26.2743 5.24943C26.2566 5.24201 26.2381 5.23469 26.2192 5.22763C26.0401 5.16004 25.8882 5.0354 25.7869 4.87293C25.4397 4.31475 24.4108 3.06304 22.029 2.73472C21.3902 2.64295 20.774 2.43372 20.2114 2.1176C19.1285 1.5176 16.9265 0.752955 13.6392 1.74163C13.6392 1.74163 8.58998 -0.0878394 5.91866 3.86378C5.91866 3.86378 4.28031 4.21328 3.7216 5.48616C3.54977 5.88952 3.53963 6.34351 3.69329 6.75414C3.84695 7.16476 4.15263 7.50057 4.54704 7.69204C5.3056 8.07101 6.62887 8.42113 8.90489 8.34234Z" fill="#9FC2AB"/>
<path d="M29.6478 12.4916C29.6823 12.2798 29.6618 12.0627 29.5882 11.8612C29.5146 11.6596 29.3904 11.4803 29.2275 11.3406C29.2093 11.3256 29.1904 11.3109 29.1706 11.2965C28.9806 11.16 28.8336 10.972 28.7471 10.7547C28.6337 10.4592 28.3515 10.0383 27.6548 9.73438C27.8968 10.5991 26.7707 10.9008 26.0857 11.0032C25.9699 11.0209 25.8652 11.0824 25.7933 11.175C25.7214 11.2675 25.6878 11.3841 25.6993 11.5008C25.7863 12.4686 24.6472 12.4974 24.6472 12.4974H21.9973C20.1696 12.4974 19.8892 11.7644 19.9263 11.2326C18.9575 11.9935 19.3169 13.6212 20.586 13.8183C20.7331 13.8407 20.8817 13.8517 21.0305 13.8512H26.7746C26.7746 13.8512 29.4213 14.0591 29.6478 12.4916Z" fill="#698779"/>
<path d="M26.5663 6.67698C26.9795 6.22371 26.8409 5.4858 26.2751 5.2496C26.2574 5.24218 26.2389 5.23486 26.22 5.2278C26.0409 5.16023 25.8889 5.03558 25.7877 4.8731C25.6342 4.62999 25.4535 4.40521 25.249 4.20312C23.7803 5.51986 19.1207 5.35018 19.1207 5.35018H15.4766C14.7647 5.35014 14.0568 5.45676 13.3766 5.66651L11.9096 6.11871C11.2293 6.32846 10.5214 6.43508 9.80958 6.43504H7.61058C5.05908 6.43504 4.48017 5.4311 4.45422 4.56692C4.13879 4.80895 3.88757 5.12468 3.72258 5.48642C3.55075 5.88978 3.54061 6.34377 3.69427 6.75439C3.84792 7.16502 4.1536 7.50083 4.54802 7.6923C5.30684 8.07171 6.62967 8.42165 8.90578 8.34286C9.16325 8.33404 9.42169 8.33245 9.67925 8.33898L19.3481 8.58418C19.3481 8.58418 19.7435 8.6283 20.2449 8.32451C20.6104 8.10538 21.0329 8.00002 21.4585 8.02186C22.7458 8.08239 25.3418 8.01983 26.5663 6.67698Z" fill="#698779"/>
<path d="M19.4434 14.977C18.6412 14.4501 17.784 14.0123 16.8869 13.6711C16.7394 13.6142 16.6081 13.5222 16.5042 13.4031C16.4003 13.2839 16.3271 13.1412 16.2909 12.9873C16.2546 12.8335 16.2565 12.6731 16.2962 12.5201C16.336 12.3671 16.4125 12.2261 16.5191 12.1094C16.5191 12.1094 15.5573 12.8258 15.9933 13.8235C16.0466 13.9441 16.1237 14.0527 16.2201 14.1426C16.3165 14.2326 16.4301 14.3021 16.5541 14.3469C17.0862 14.5418 18.1854 14.9684 18.7985 15.3755C18.968 15.488 19.167 15.548 19.3705 15.548L20.1629 15.5487C19.9406 15.337 19.6998 15.1457 19.4434 14.977Z" fill="#473B37"/>
<path d="M18.7295 21.1192C18.4721 21.5443 18.1122 21.898 17.6826 22.1479H20.0808C20.4398 21.8566 20.7495 21.5092 20.9977 21.1191L18.7295 21.1192Z" fill="#473B37"/>
</svg>
