<svg width="21" height="20" viewBox="0 0 21 20" fill="none" xmlns="http://www.w3.org/2000/svg">
<g clip-path="url(#clip0_584_20569)">
<path d="M19.8336 4.74526L12.8952 1.4743C12.8239 1.44086 12.7433 1.44086 12.6705 1.4743L5.73264 4.74526C5.62108 4.79774 5.55919 4.92089 5.58732 5.04245C5.61358 5.16277 5.72138 5.24871 5.8442 5.24871H6.72046H7.10671V12.9728C7.10671 13.2865 7.36046 13.5397 7.67392 13.5397H11.3886V9.11963H14.178V13.54H17.892C18.2052 13.54 18.4598 13.2865 18.4598 12.9731V5.24871H18.8464H19.7217C19.8445 5.24871 19.952 5.16277 19.9786 5.04245C20.0065 4.92089 19.9464 4.79778 19.8336 4.74526Z" fill="#EA186D"/>
<path d="M19.8335 4.74526L12.895 1.4743C12.8238 1.44086 12.7432 1.44086 12.6703 1.4743L7.54688 3.88931L18.4597 12.46V5.24871H18.8463H19.7216C19.8444 5.24871 19.9519 5.16277 19.9785 5.04245C20.0063 4.92089 19.9463 4.79778 19.8335 4.74526Z" fill="#BA1165"/>
<path d="M20.241 10.2204C19.8447 9.95484 19.3078 10.0611 19.0422 10.4579L17.6853 12.486L16.5806 13.0298H10.8672C11.9866 12.5214 14.4169 12.4273 14.4169 11.8145C14.4169 10.7829 14.4713 10.5364 13.1388 10.5364H8.68345C8.6719 10.5364 8.66095 10.5395 8.64937 10.5395C8.3106 10.531 7.96937 10.6523 7.71154 10.9108L4.56095 14.0614C4.54845 14.0742 4.54 14.0889 4.52783 14.1024H4.52001L1.06188 17.5599C0.815946 17.5905 0.625 17.798 0.625 18.0527C0.625 18.3286 0.848438 18.552 1.12377 18.552H8.46437C8.7397 18.552 8.96342 18.3286 8.96342 18.0527C8.96342 17.8892 8.88312 17.7445 8.76124 17.6536L9.67531 16.2436H14.4175C14.4588 16.2436 14.4975 16.2345 14.5378 16.2314C14.7588 16.2595 14.9894 16.223 15.1981 16.1058L18.4688 14.272C18.6988 14.1426 18.8585 13.9401 18.9441 13.7111L20.4788 11.4186C20.7444 11.0223 20.6382 10.4855 20.241 10.2204Z" fill="#00B7FF"/>
<path d="M18.9442 13.7111L20.4789 11.4186C20.7445 11.0223 20.6382 10.4855 20.2411 10.2204C19.8448 9.95484 19.3079 10.0611 19.0423 10.4579L17.6854 12.486L16.5807 13.0298H10.8673C11.9866 12.5214 14.417 12.4273 14.417 11.8145C14.417 10.7829 14.4714 10.5364 13.1388 10.5364H8.68351C8.67196 10.5364 8.66101 10.5395 8.64943 10.5395C8.31066 10.531 7.96943 10.6523 7.7116 10.9108L7.12158 11.5011L11.8641 16.2436H14.4172C14.4585 16.2436 14.4972 16.2345 14.5375 16.2314C14.7585 16.2595 14.9891 16.223 15.1978 16.1058L18.4688 14.272C18.6989 14.1426 18.8585 13.9398 18.9442 13.7111Z" fill="#008CFF"/>
</g>
<defs>
<clipPath id="clip0_584_20569">
<rect width="20" height="20" fill="white" transform="translate(0.625)"/>
</clipPath>
</defs>
</svg>
