<svg width="31" height="30" viewBox="0 0 31 30" fill="none" xmlns="http://www.w3.org/2000/svg">
<g clip-path="url(#clip0_2270_17379)">
<path d="M28.3032 11.7052C28.2819 11.7038 28.2599 11.7023 28.2386 11.7002C26.1232 11.5406 24.3426 11.0277 23.0167 10.5056C22.5826 10.3353 22.1966 10.1636 21.8646 10.0033C20.9254 9.55 20.4082 9.18679 20.4082 9.18679C20.4082 9.18679 18.5389 10.5006 15.4502 11.2476C15.2757 11.2895 15.0969 11.3299 14.9139 11.3682C13.8164 11.5988 12.5814 11.7513 11.2349 11.7513C11.2349 11.7513 11.1697 12.2507 11.1349 13.0885C11.1221 13.3992 11.1136 13.7568 11.1143 14.1526C11.1172 15.4686 11.2214 17.2087 11.6081 19.0716C11.6797 19.415 11.7606 19.7619 11.8528 20.1109C12.4473 22.3789 13.4937 24.7412 15.3019 26.6842C15.4665 26.8616 15.6382 27.0354 15.8163 27.2057C15.519 27.2269 15.2204 27.239 14.9181 27.2411H14.8167C14.655 27.2397 14.4932 27.2362 14.3329 27.2291C13.554 27.1957 12.7914 27.0978 12.0514 26.9389C9.16559 26.3217 6.61954 24.7901 4.73039 22.6612C4.49345 22.3952 4.26786 22.1206 4.05291 21.8362C2.4227 19.6846 1.41747 17.0335 1.30681 14.1526C1.30042 13.976 1.29688 13.7986 1.29688 13.6206C1.29688 13.4425 1.30042 13.2652 1.30681 13.0885C1.41747 10.2076 2.4227 7.55728 4.0522 5.40566C4.26715 5.12119 4.49345 4.84594 4.72968 4.57991C6.61954 2.4517 9.16559 0.920097 12.0514 0.302206C12.4239 0.222044 12.802 0.157488 13.1858 0.108539C13.7207 0.0411455 14.2648 0.00425643 14.8167 0H14.9181C15.8666 0.00638464 16.7917 0.110667 17.6841 0.302206C20.5693 0.920097 23.116 2.45241 25.0052 4.58062C25.1236 4.71399 25.2393 4.84949 25.3521 4.98711C25.4649 5.12474 25.5748 5.26449 25.6819 5.40637C26.3183 6.24631 26.8588 7.16144 27.2873 8.13687C27.3079 8.18227 27.3278 8.22838 27.3476 8.27449C27.6881 9.07115 27.9542 9.90612 28.1386 10.7723C28.1563 10.8546 28.1734 10.9376 28.189 11.0206C28.2095 11.1263 28.2287 11.2327 28.2471 11.3398C28.267 11.4611 28.2862 11.5832 28.3032 11.7052Z" fill="#AFDAF9"/>
<path d="M25.6819 5.40637C25.5748 5.26449 25.4649 5.12474 25.3521 4.98711C25.2393 4.84949 25.1236 4.71399 25.0052 4.58062C24.1333 5.18858 23.1103 5.71 21.9576 6.13493C21.273 4.27345 20.3373 2.69645 19.2313 1.55147C18.7425 1.04566 18.2233 0.627113 17.6841 0.302206C16.7917 0.110667 15.8666 0.00638464 14.9181 0H14.8167C13.8689 0.00709404 12.9439 0.110667 12.0514 0.302206C11.5123 0.627113 10.9937 1.04566 10.5042 1.55147C9.39756 2.69645 8.46115 4.27416 7.77728 6.13493C6.62521 5.71 5.60154 5.18858 4.72968 4.57991C4.49345 4.84594 4.26715 5.12119 4.0522 5.40566L4.07703 5.42269C5.04111 6.10088 6.17048 6.67904 7.43961 7.14441C6.88343 8.97751 6.57059 11.0114 6.52448 13.0885H1.30681C1.30042 13.2652 1.29688 13.4425 1.29688 13.6206C1.29688 13.7986 1.30042 13.976 1.30681 14.1526H6.52448C6.57059 16.2305 6.88343 18.265 7.43961 20.0974C6.17048 20.5628 5.04111 21.141 4.07703 21.8192L4.05291 21.8362C4.26786 22.1206 4.49345 22.3952 4.73039 22.6612C5.60225 22.0533 6.62521 21.5318 7.77728 21.1062C8.46257 22.9684 9.39898 24.5454 10.5042 25.6904C10.9937 26.1969 11.5123 26.6147 12.0514 26.9389C12.9439 27.1305 13.8689 27.234 14.8167 27.2411H14.9181C15.2204 27.239 15.519 27.2269 15.8163 27.2057C15.6382 27.0354 15.4665 26.8616 15.3019 26.6842L14.9933 26.7098C14.9678 26.7105 14.9437 26.7098 14.9181 26.7105L14.8444 26.7098H14.8288C12.4125 26.6566 10.129 24.395 8.78748 20.7699C9.74375 20.4826 10.7532 20.2634 11.7968 20.1187L11.8528 20.1109L12.3239 20.0463L12.1777 18.9922L11.6513 19.0652C11.6372 19.0674 11.6223 19.0695 11.6081 19.0716C10.5142 19.2249 9.45432 19.4561 8.44909 19.7605C7.9291 18.0338 7.63398 16.1155 7.58929 14.1526H11.6506V13.0885H7.58929C7.63398 11.1263 7.9291 9.20807 8.44909 7.48138C10.2815 8.03542 12.3132 8.34827 14.3861 8.39367V11.3682H15.4502V8.39154C17.4883 8.33763 19.4832 8.0262 21.2858 7.48138C21.5284 8.28513 21.7228 9.12932 21.8646 10.0033C21.8831 10.1168 21.9008 10.231 21.9178 10.346L21.9952 10.8723L23.0479 10.7184L23.0167 10.5056L22.9706 10.192C22.8159 9.13358 22.5889 8.11133 22.296 7.14441C23.5651 6.67904 24.6945 6.10088 25.6585 5.42269L25.6819 5.40637ZM14.3861 7.32957C12.4281 7.28416 10.5135 6.99047 8.78748 6.4719C10.0452 3.06888 12.1352 0.868311 14.3861 0.567523V7.32957ZM15.4502 7.32673V0.58313C17.6621 0.934995 19.708 3.11996 20.9474 6.4719C19.2519 6.98125 17.3734 7.27352 15.4502 7.32673Z" fill="#97C9E8"/>
<path opacity="0.23" d="M28.2467 11.3406C28.2283 11.2335 28.2091 11.1271 28.1885 11.0214C28.1729 10.9384 28.1559 10.8554 28.1382 10.7731C27.9537 9.90692 27.6877 9.07195 27.3472 8.27529C27.3273 8.22917 27.3074 8.18306 27.2869 8.13766C24.0747 9.45715 18.989 8.03125 18.989 8.03125C18.989 8.03125 15.3398 10.7731 9.81566 10.7731C9.81566 10.7731 8.53448 21.224 14.3324 27.2299C14.4928 27.237 14.6545 27.2405 14.8163 27.2419H14.9177C15.2199 27.2398 15.5186 27.2277 15.8158 27.2064C15.6377 27.0362 15.4661 26.8624 15.3015 26.685C13.4932 24.742 12.4468 22.3797 11.8524 20.1117C11.7601 19.7627 11.6793 19.4158 11.6076 19.0724C11.221 17.2095 11.1167 15.4694 11.1139 14.1534C11.1132 13.7576 11.1217 13.4 11.1344 13.0893C11.1692 12.2515 11.2345 11.7521 11.2345 11.7521C12.5809 11.7521 13.816 11.5996 14.9134 11.369C15.0965 11.3307 15.2752 11.2903 15.4498 11.2484C18.5385 10.5014 20.4078 9.18758 20.4078 9.18758C20.4078 9.18758 20.9249 9.55079 21.8642 10.0041C22.1962 10.1644 22.5821 10.3361 23.0163 10.5064C24.3421 11.0285 26.1227 11.5414 28.2382 11.701C28.2361 11.657 28.2389 11.5279 28.2467 11.3406Z" fill="#808080"/>
<path opacity="0.23" d="M8.07054 19.2261C7.57573 17.7936 6.34265 16.9198 5.31638 17.2743C4.2901 17.6288 3.85926 19.0774 4.35407 20.5098C4.84888 21.9423 6.08196 22.8161 7.10824 22.4616C8.13451 22.1071 8.56535 20.6585 8.07054 19.2261Z" fill="#F2F2F2"/>
<path opacity="0.23" d="M27.3474 8.27449C27.1161 8.28513 26.8841 8.2901 26.65 8.2901C20.7932 8.2901 15.7117 4.96938 13.1855 0.108539C13.7204 0.0411454 14.2646 0.00425643 14.8165 0H14.9179C15.8664 0.00638464 16.7914 0.110667 17.6839 0.302206C20.569 0.920097 23.1158 2.45241 25.0049 4.58062C25.1234 4.71399 25.239 4.84949 25.3518 4.98711C25.4646 5.12474 25.5746 5.26449 25.6817 5.40637C26.3478 6.28532 26.909 7.24727 27.3474 8.27449Z" fill="#F2F2F2"/>
<path d="M29.5819 11.752C29.1435 11.752 28.7171 11.7357 28.3029 11.7059C27.509 11.6491 26.762 11.542 26.0682 11.4023C22.5631 10.7021 20.4079 9.1875 20.4079 9.1875C20.4079 9.1875 19.192 10.0416 17.1021 10.7638C15.5705 11.2937 13.5707 11.752 11.2346 11.752C11.2346 11.752 10.6614 16.1248 12.0171 20.7018C12.6953 22.9932 13.8573 25.3357 15.8159 27.2064C16.2579 27.6285 16.7396 28.0264 17.2667 28.3946C18.1761 29.0295 19.2168 29.5751 20.4079 30.0007C31.4555 26.055 29.5819 11.752 29.5819 11.752Z" fill="#EA7D68"/>
<path opacity="0.23" d="M27.4311 13.9042C27.4418 15.2088 27.3489 17.0632 26.8977 19.0161C25.9244 23.2279 23.743 26.0981 20.408 27.5602C17.0731 26.0981 14.8917 23.2279 13.9191 19.0161C13.4679 17.0639 13.3743 15.2095 13.3856 13.9042C16.5538 13.5622 19.0077 12.5343 20.408 11.8086C21.8091 12.5343 24.2629 13.5622 27.4311 13.9042Z" fill="#333333"/>
<path d="M20.4082 26.86C17.4129 25.4495 15.4398 22.7642 14.5414 18.8736C14.1598 17.2223 14.0451 15.6425 14.0264 14.4703C16.7686 14.0976 18.9557 13.2459 20.4083 12.5254C21.8615 13.2458 24.049 14.0976 26.7905 14.4702C26.7713 15.6446 26.6564 17.2258 26.2758 18.8734C25.3766 22.7642 23.4034 25.4495 20.4082 26.86Z" fill="#F9A18A"/>
<path opacity="0.23" d="M20.4078 30.0008C19.2168 29.5752 18.1761 29.0296 17.2666 28.3947C21.3882 23.0302 24.3223 17.2386 26.0682 11.4023C26.762 11.5421 27.509 11.6492 28.3028 11.706C28.7171 11.7358 29.1434 11.7521 29.5819 11.7521C29.5819 11.7521 31.4554 26.0551 20.4078 30.0008Z" fill="#F2F2F2"/>
<path opacity="0.23" d="M17.1021 10.7637C16.0841 13.1884 14.2226 17.3023 12.0171 20.7017C10.6614 16.1246 11.2346 11.7519 11.2346 11.7519C13.5707 11.7519 15.5705 11.2936 17.1021 10.7637Z" fill="#F2F2F2"/>
</g>
<defs>
<clipPath id="clip0_2270_17379">
<rect width="30" height="30" fill="white" transform="translate(0.5)"/>
</clipPath>
</defs>
</svg>
