<svg width="30" height="30" viewBox="0 0 30 30" fill="none" xmlns="http://www.w3.org/2000/svg">
<path d="M28.4766 27.8906H20.6852L18.7358 22.4754C19.4773 22.1743 20.1747 21.7865 20.8151 21.3244C21.2661 22.5155 22.7999 22.8436 23.7008 21.9429C24.6041 21.0395 24.2664 19.5062 23.0828 19.0565C23.9663 17.8317 24.5784 16.399 24.831 14.847C25.9879 15.3652 27.3047 14.5147 27.3047 13.2422C27.3047 11.9694 25.9878 11.1193 24.831 11.6374C24.5785 10.0853 23.9664 8.65266 23.0828 7.42781C24.2654 6.97857 24.6047 5.44547 23.7008 4.54143C22.8037 3.64453 21.268 3.96346 20.8153 5.15994C19.5902 4.27605 18.1572 3.66369 16.6049 3.41115C17.1229 2.25393 16.2726 0.9375 15 0.9375C13.7273 0.9375 12.8771 2.25445 13.3952 3.41115C11.8428 3.66369 10.4098 4.27605 9.1848 5.15994C8.73662 3.97564 7.20492 3.63586 6.2993 4.54143C5.39543 5.44529 5.73398 6.97828 6.91717 7.42781C6.03363 8.65266 5.4215 10.0853 5.16902 11.6374C4.01197 11.1192 2.69531 11.9696 2.69531 13.2422C2.69531 14.515 4.01227 15.3652 5.16902 14.847C5.4215 16.3991 6.03363 17.8318 6.91717 19.0566C5.73475 19.5057 5.39525 21.039 6.2993 21.943C7.20316 22.8468 8.73586 22.5108 9.1848 21.3244C9.73746 21.7232 10.3323 22.0666 10.9615 22.3468L8.74395 27.8906H1.52344C1.19988 27.8906 0.9375 28.153 0.9375 28.4766C0.9375 28.8001 1.19988 29.0625 1.52344 29.0625C3.2134 29.0625 23.0188 29.0626 28.4766 29.0625C28.8002 29.0625 29.0625 28.8001 29.0625 28.4766C29.0625 28.153 28.8002 27.8906 28.4766 27.8906ZM22.8722 21.1143C22.6433 21.3432 22.2725 21.3434 22.0435 21.1143C21.815 20.8859 21.815 20.5141 22.0435 20.2856C22.2724 20.0567 22.6431 20.0566 22.8722 20.2856C23.1006 20.514 23.1006 20.8859 22.8722 21.1143ZM25.5469 12.6562C25.87 12.6562 26.1328 12.9191 26.1328 13.2422C26.1328 13.5653 25.87 13.8281 25.5469 13.8281C25.2238 13.8281 24.9609 13.5653 24.9609 13.2422C24.9609 12.9191 25.2238 12.6562 25.5469 12.6562ZM22.0435 5.37006C22.2723 5.14119 22.6431 5.14096 22.8721 5.37006C23.1006 5.59852 23.1006 5.97029 22.8722 6.19869C22.6433 6.42768 22.2725 6.42773 22.0435 6.19869C21.815 5.97023 21.815 5.59852 22.0435 5.37006ZM14.4141 2.69531C14.4141 2.37223 14.6769 2.10938 15 2.10938C15.3231 2.10938 15.5859 2.37223 15.5859 2.69531C15.5859 3.0184 15.3231 3.28125 15 3.28125C14.6769 3.28125 14.4141 3.0184 14.4141 2.69531ZM7.12793 5.37006C7.35686 5.14107 7.72752 5.14102 7.95656 5.37006C8.18496 5.59852 8.18496 5.97023 7.95656 6.19869C7.72764 6.42768 7.35697 6.42773 7.12793 6.19869C6.89947 5.97023 6.89947 5.59852 7.12793 5.37006ZM4.45312 13.8281C4.13004 13.8281 3.86719 13.5653 3.86719 13.2422C3.86719 12.9191 4.13004 12.6562 4.45312 12.6562C4.77627 12.6562 5.03906 12.9191 5.03906 13.2422C5.03906 13.5653 4.77627 13.8281 4.45312 13.8281ZM7.95656 21.1143C7.72764 21.3432 7.35691 21.3434 7.12793 21.1143C6.89947 20.8859 6.89947 20.5141 7.12793 20.2856C7.35686 20.0567 7.72752 20.0566 7.95656 20.2856C8.18502 20.5141 8.18502 20.8858 7.95656 21.1143ZM6.21094 13.2422C6.21094 8.3959 10.1537 4.45312 15 4.45312C19.8463 4.45312 23.7891 8.3959 23.7891 13.2422C23.7891 16.9072 21.5339 20.0549 18.3386 21.372L15.7849 14.2785C16.6923 13.9549 17.3438 13.0874 17.3438 12.0703C17.3438 10.778 16.2924 9.72656 15 9.72656C13.7077 9.72656 12.6562 10.778 12.6562 12.0703C12.6562 13.0788 13.2966 13.9406 14.1921 14.2704L11.3969 21.2583C8.34223 19.8798 6.21094 16.8053 6.21094 13.2422ZM15.5859 23.7891C15.5859 24.1121 15.3231 24.375 15 24.375C14.6769 24.375 14.4141 24.1121 14.4141 23.7891C14.4141 23.466 14.6769 23.2031 15 23.2031C15.3231 23.2031 15.5859 23.466 15.5859 23.7891ZM12.4955 21.6671L14.9712 15.4779L17.2274 21.745C15.6807 22.1504 14.0367 22.1261 12.4955 21.6671ZM15 13.2422C14.3539 13.2422 13.8281 12.7165 13.8281 12.0703C13.8281 11.4241 14.3539 10.8984 15 10.8984C15.6462 10.8984 16.1719 11.4241 16.1719 12.0703C16.1719 12.7165 15.6462 13.2422 15 13.2422ZM12.0585 22.7597C12.4921 22.894 12.9386 22.9989 13.3952 23.0733C12.877 24.2299 13.7275 25.5469 15 25.5469C16.2725 25.5469 17.1229 24.2305 16.6049 23.0732C16.9514 23.0168 17.292 22.9426 17.6256 22.8512L19.4398 27.8906H10.0061L12.0585 22.7597Z" fill="white"/>
</svg>
