<svg width="81" height="72" viewBox="0 0 81 72" fill="none" xmlns="http://www.w3.org/2000/svg">
<path d="M61.3027 0.210938H54.9869V6.52677H61.3027V0.210938Z" fill="#695A69"/>
<path d="M2.35535 29.6836V63.3678H31.829V38.1048H48.671V63.3678H78.1447V29.6836H40.25H2.35535ZM25.5132 38.1048V42.3153V44.4206V52.8416V54.9469H23.4079H12.8815H10.7763V52.8416V44.4206V42.3153V38.1048V35.9994H12.8817H23.408H25.5133V38.1048H25.5132ZM54.9869 52.8416V44.4206V42.3153V38.1048V35.9994H57.0922H67.6185H69.7239V38.1048V42.3153V44.4206V52.8416V54.9469H67.6185H57.0922H54.9869V52.8416Z" fill="#F2D057"/>
<path d="M69.7237 6.52734H61.3027H54.9868H40.25H10.7763L0.25 29.6852H2.35533H40.25H78.1447H80.25L69.7237 6.52734Z" fill="#BF515A"/>
<path d="M12.8815 52.843H21.3027L12.8815 44.4219V52.843Z" fill="#95FFFF"/>
<path d="M21.3027 52.843H23.4079V44.4219H12.8815L21.3027 52.843Z" fill="#80D7F0"/>
<path d="M23.4079 38.1055H12.8815V42.316H23.4079V38.1055Z" fill="#6EB1E2"/>
<path d="M12.8815 36H10.7764V38.1053V42.3158V44.4212V52.8422V54.9475H12.8817H23.408H25.5134V52.8422V44.4212V42.3158V38.1053V36H23.408H12.8815ZM23.4079 52.8422H21.3025H12.8815V44.4212H23.4079V52.8422ZM23.4079 42.3158H12.8815V38.1053H23.4079V42.3158Z" fill="#695A69"/>
<path d="M57.0921 44.4219V52.843H65.5131L57.0921 44.4219Z" fill="#95FFFF"/>
<path d="M67.6184 52.843V44.4219H57.0921L65.5131 52.843H67.6184Z" fill="#80D7F0"/>
<path d="M67.6184 38.1055H57.0921V42.316H67.6184V38.1055Z" fill="#6EB1E2"/>
<path d="M67.6186 54.9473H69.7239V52.842V44.421V42.3157V38.1052V36H67.6186H57.0922H54.9869V38.1053V42.3158V44.4212V52.8422V54.9475H57.0922H67.6186V54.9473ZM57.0922 38.1053H67.6186V42.3158H57.0922V38.1053ZM57.0922 44.421H67.6186V52.842H65.5132H57.0922V44.421Z" fill="#695A69"/>
<path d="M48.671 38.1055H31.829V63.3685V71.7897H48.671V63.3685V38.1055Z" fill="#944851"/>
<path d="M31.829 63.3672H2.35535V71.7882H31.829V63.3672Z" fill="#E9A868"/>
<path d="M78.1447 63.3672H48.671V71.7882H78.1447V63.3672Z" fill="#E9A868"/>
</svg>
