<svg width="46" height="39" viewBox="0 0 46 39" fill="none" xmlns="http://www.w3.org/2000/svg">
<path d="M44 21.2578H43.64L38.563 10.2578H39.5C40.163 10.2578 40.7989 9.99441 41.2678 9.52561C41.7366 9.05671 42 8.42081 42 7.75781C42 7.09481 41.7366 6.45891 41.2678 5.99004C40.7989 5.5212 40.163 5.25781 39.5 5.25781H26.1C25.9218 5.03716 25.7207 4.83603 25.5 4.65781V2.75781C25.5 2.09477 25.2366 1.45888 24.7678 0.990043C24.2989 0.521203 23.663 0.257812 23 0.257812C22.337 0.257812 21.7011 0.521203 21.2322 0.990043C20.7634 1.45888 20.5 2.09477 20.5 2.75781V4.65781C20.2793 4.83603 20.0782 5.03716 19.9 5.25781H6.5C5.83696 5.25781 5.20107 5.5212 4.73223 5.99004C4.26339 6.45891 4 7.09481 4 7.75781C4 8.42081 4.26339 9.05671 4.73223 9.52561C5.20107 9.99441 5.83696 10.2578 6.5 10.2578H7.437L2.36 21.2578H2C1.46957 21.2578 0.96086 21.4685 0.58579 21.8436C0.21071 22.2187 0 22.7274 0 23.2578C0.00159 24.5834 0.52888 25.8542 1.46622 26.7916C2.40356 27.7289 3.6744 28.2562 5 28.2578H13C14.3256 28.2562 15.5964 27.7289 16.5338 26.7916C17.4711 25.8542 17.9984 24.5834 18 23.2578C18 22.7274 17.7893 22.2187 17.4142 21.8436C17.0391 21.4685 16.5304 21.2578 16 21.2578H15.64L10.563 10.2578H19.9C20.0778 10.4789 20.2789 10.68 20.5 10.8578L20.537 27.9188C19.9171 28.2691 19.3798 28.7485 18.9614 29.3246C18.543 29.9007 18.2533 30.56 18.112 31.2578H10C8.6744 31.2594 7.40356 31.7867 6.46622 32.724C5.52888 33.6614 5.00159 34.9322 5 36.2578C5 36.7882 5.21071 37.2969 5.58579 37.672C5.96086 38.0471 6.46957 38.2578 7 38.2578H39C39.5304 38.2578 40.0391 38.0471 40.4142 37.672C40.7893 37.2969 41 36.7882 41 36.2578C40.9984 34.9322 40.4711 33.6614 39.5338 32.724C38.5964 31.7867 37.3256 31.2594 36 31.2578H27.888C27.7509 30.5663 27.4667 29.9124 27.0547 29.3405C26.6427 28.7685 26.1124 28.2918 25.5 27.9428V10.8578C25.7207 10.6796 25.9218 10.4785 26.1 10.2578H35.44L30.36 21.2578H30C29.4696 21.2578 28.9609 21.4685 28.5858 21.8436C28.2107 22.2187 28 22.7274 28 23.2578C28.0016 24.5834 28.5289 25.8542 29.4662 26.7916C30.4036 27.7289 31.6744 28.2562 33 28.2578H41C42.3256 28.2562 43.5964 27.7289 44.5338 26.7916C45.4711 25.8542 45.9984 24.5834 46 23.2578C46 22.7274 45.7893 22.2187 45.4142 21.8436C45.0391 21.4685 44.5304 21.2578 44 21.2578ZM13 26.2578H5C4.20435 26.2578 3.44129 25.9417 2.87868 25.3791C2.31607 24.8165 2 24.0534 2 23.2578H16C16 24.0534 15.6839 24.8165 15.1213 25.3791C14.5587 25.9417 13.7956 26.2578 13 26.2578ZM4.563 21.2578L9 11.6448L13.437 21.2578H4.563ZM21 7.75781C21 7.36221 21.1173 6.97561 21.3371 6.64671C21.5568 6.31781 21.8692 6.06143 22.2346 5.91005C22.6001 5.75868 23.0022 5.71907 23.3902 5.79624C23.7781 5.87341 24.1345 6.06389 24.4142 6.34361C24.6939 6.62331 24.8844 6.97971 24.9616 7.36761C25.0387 7.75561 24.9991 8.15771 24.8478 8.52321C24.6964 8.88861 24.44 9.20101 24.1111 9.42071C23.7822 9.64051 23.3956 9.75781 23 9.75781C22.4696 9.75781 21.9609 9.54711 21.5858 9.17201C21.2107 8.79691 21 8.28821 21 7.75781ZM22.5 2.75781C22.5 2.6252 22.5527 2.49802 22.6464 2.40426C22.7402 2.31049 22.8674 2.25781 23 2.25781C23.1326 2.25781 23.2598 2.31049 23.3536 2.40426C23.4473 2.49802 23.5 2.6252 23.5 2.75781V3.80881C23.3346 3.78118 23.1676 3.76415 23 3.75781C22.8324 3.76415 22.6654 3.78118 22.5 3.80881V2.75781ZM6.5 8.25781C6.36739 8.25781 6.24021 8.20511 6.14645 8.11141C6.05268 8.01761 6 7.89041 6 7.75781C6 7.62521 6.05268 7.49801 6.14645 7.40421C6.24021 7.31051 6.36739 7.25781 6.5 7.25781H19.051C19.0234 7.42321 19.0063 7.59021 19 7.75781C19.0063 7.92541 19.0234 8.09241 19.051 8.25781H6.5ZM39 36.2578H7C7 35.4622 7.31607 34.6991 7.87868 34.1365C8.44129 33.5739 9.2044 33.2578 10 33.2578H36C36.7956 33.2578 37.5587 33.5739 38.1213 34.1365C38.6839 34.6991 39 35.4622 39 36.2578ZM24.483 29.6578C25.1026 30.0138 25.5722 30.5822 25.805 31.2578H20.2C20.4328 30.5822 20.9024 30.0138 21.522 29.6578C21.8234 29.4843 22.0733 29.2337 22.246 28.9318C22.4188 28.63 22.5081 28.2876 22.505 27.9398V11.7068C22.6704 11.7344 22.8374 11.7515 23.005 11.7578C23.1726 11.7515 23.3396 11.7344 23.505 11.7068V27.9428C23.5019 28.2896 23.5908 28.631 23.7626 28.9323C23.9344 29.2335 24.183 29.4839 24.483 29.6578ZM26.949 7.25781H39.5C39.6326 7.25781 39.7598 7.31051 39.8536 7.40421C39.9473 7.49801 40 7.62521 40 7.75781C40 7.89041 39.9473 8.01761 39.8536 8.11141C39.7598 8.20511 39.6326 8.25781 39.5 8.25781H26.949C26.9766 8.09241 26.9937 7.92541 27 7.75781C26.9937 7.59021 26.9766 7.42321 26.949 7.25781ZM37 11.6448L41.437 21.2578H32.563L37 11.6448ZM41 26.2578H33C32.2044 26.2578 31.4413 25.9417 30.8787 25.3791C30.3161 24.8165 30 24.0534 30 23.2578H44C44 24.0534 43.6839 24.8165 43.1213 25.3791C42.5587 25.9417 41.7956 26.2578 41 26.2578Z" fill="black"/>
</svg>
