<svg width="20" height="20" viewBox="0 0 20 20" fill="none" xmlns="http://www.w3.org/2000/svg">
<path d="M12.9463 2.94629C11.6083 2.94629 10.3059 3.32286 9.18006 4.03526C8.08541 4.72787 7.20253 5.7062 6.62683 6.86451L8.05028 7.57199C8.98105 5.69925 10.8571 4.53589 12.9463 4.53589C15.9592 4.53589 18.4104 6.98707 18.4104 10C18.4104 13.0129 15.9592 15.4641 12.9463 15.4641C10.8571 15.4641 8.98105 14.3008 8.05028 12.428L6.62683 13.1355C7.20253 14.2938 8.08541 15.2721 9.18006 15.9647C10.3059 16.6771 11.6083 17.0537 12.9463 17.0537C16.8357 17.0537 20 13.8895 20 10C20 6.11063 16.8357 2.94629 12.9463 2.94629Z" fill="#005ECE"/>
<path d="M12.9463 10.7948V9.20526H3.04278L4.07035 8.17769L2.94633 7.05371L0 10.0001L2.94637 12.9464L4.07031 11.8224L3.04274 10.7948H12.9463Z" fill="#2488FF"/>
</svg>
