<svg width="30" height="26" viewBox="0 0 30 26" fill="none" xmlns="http://www.w3.org/2000/svg">
<path d="M29.0625 14.875H28.125V3.71952C28.125 3.44899 28.227 3.19592 28.3732 2.96835C28.5123 2.7519 28.5938 2.49549 28.5938 2.21876C28.5938 1.35942 27.823 0.680143 26.9351 0.834479C26.3668 0.933268 25.9024 1.40085 25.8032 1.96897C25.7356 2.35581 25.8287 2.7161 26.0242 3.00204C26.1589 3.19926 26.25 3.42286 26.25 3.66174V5.96876C26.25 4.93323 25.4105 4.09376 24.375 4.09376H5.625C4.58947 4.09376 3.75 4.93323 3.75 5.96876V3.71952C3.75 3.44899 3.85195 3.19592 3.9982 2.96835C4.1373 2.7519 4.21875 2.49549 4.21875 2.21876C4.21875 1.35942 3.44801 0.680143 2.56008 0.834479C1.99184 0.933268 1.52736 1.40085 1.42816 1.96897C1.36061 2.35581 1.45371 2.7161 1.64918 3.00204C1.78395 3.19926 1.875 3.42292 1.875 3.6618V14.875H0.9375C0.419766 14.875 0 15.2947 0 15.8125V22.375C0 22.8927 0.419766 23.3125 0.9375 23.3125H29.0625C29.5802 23.3125 30 22.8927 30 22.375V15.8125C30 15.2947 29.5802 14.875 29.0625 14.875ZM26.25 14.875H3.75V13.4688C3.75 12.951 4.16977 12.5313 4.6875 12.5313H5.625V9.95671C5.625 9.626 5.46721 9.33262 5.25979 9.0751C5.19504 8.99471 5.15625 8.89253 5.15625 8.78126C5.15625 8.52239 5.36613 8.31251 5.625 8.31251C5.73621 8.31251 5.83846 8.35124 5.91885 8.41598C6.17643 8.6234 6.46975 8.78126 6.80045 8.78126H11.0121C11.3428 8.78126 11.6361 8.6234 11.8937 8.41598C11.9741 8.35124 12.0763 8.31251 12.1876 8.31251C12.4464 8.31251 12.6563 8.52239 12.6563 8.78126C12.6563 8.89247 12.6175 8.99471 12.5528 9.0751C12.3454 9.33262 12.1876 9.626 12.1876 9.95671V12.5313H17.8126V9.95671C17.8126 9.626 17.6548 9.33262 17.4473 9.0751C17.3825 8.99471 17.3438 8.89253 17.3438 8.78126C17.3438 8.52239 17.5536 8.31251 17.8125 8.31251C17.9237 8.31251 18.026 8.35124 18.1063 8.41598C18.3639 8.6234 18.6572 8.78126 18.9879 8.78126H23.1996C23.5303 8.78126 23.8236 8.6234 24.0812 8.41598C24.1616 8.35124 24.2638 8.31251 24.3751 8.31251C24.6339 8.31251 24.8438 8.52239 24.8438 8.78126C24.8438 8.89247 24.805 8.99471 24.7403 9.0751C24.5329 9.33262 24.3751 9.626 24.3751 9.95671V12.5313H25.3126C25.8303 12.5313 26.2501 12.951 26.2501 13.4688V14.875H26.25Z" fill="#A25425"/>
<path d="M2.56047 0.834479C2.55783 0.834948 2.55537 0.836003 2.55273 0.836472C3.22914 0.938425 3.75039 1.51393 3.75039 2.21876C3.75039 2.49549 3.66895 2.7519 3.52984 2.96835C3.38359 3.19592 3.28164 3.44899 3.28164 3.71952V14.875H3.75039V3.71952C3.75039 3.44899 3.85234 3.19592 3.99859 2.96835C4.1377 2.7519 4.21914 2.49549 4.21914 2.21876C4.21914 1.35942 3.4484 0.680143 2.56047 0.834479Z" fill="#7F4122"/>
<path d="M26.9355 0.834479C26.9328 0.834948 26.9304 0.836003 26.9277 0.836472C27.6041 0.938425 28.1254 1.51393 28.1254 2.21876C28.1254 2.49549 28.0439 2.7519 27.9048 2.96835C27.7586 3.19592 27.6566 3.44899 27.6566 3.71952V14.875H28.1254V3.71952C28.1254 3.44899 28.2273 3.19592 28.3736 2.96835C28.5127 2.7519 28.5941 2.49549 28.5941 2.21876C28.5941 1.35942 27.8234 0.680143 26.9355 0.834479Z" fill="#7F4122"/>
<path d="M29.0625 16.75V21.4375C29.0625 21.9553 28.6428 22.375 28.125 22.375H1.875C1.35721 22.375 0.9375 22.7947 0.9375 23.3125H26.7188H4.21875H29.0625C29.5803 23.3125 30 22.8928 30 22.375V15.8125C29.4822 15.8125 29.0625 16.2322 29.0625 16.75Z" fill="#7F4122"/>
<path d="M12.1875 8.3125C12.0762 8.3125 11.974 8.35123 11.8937 8.41598C11.6362 8.6234 11.3428 8.78125 11.0121 8.78125H6.80045C6.46975 8.78125 6.17637 8.6234 5.91885 8.41598C5.83846 8.35123 5.73627 8.3125 5.625 8.3125C5.36613 8.3125 5.15625 8.52238 5.15625 8.78125C5.15625 8.89252 5.19498 8.99471 5.25973 9.0751C5.46715 9.33262 5.625 9.626 5.625 9.9567V12.5312H12.1875V9.95664C12.1875 9.62594 12.3453 9.33256 12.5528 9.07504C12.6175 8.99465 12.6562 8.89246 12.6562 8.78119C12.6562 8.52238 12.4464 8.3125 12.1875 8.3125Z" fill="#E2E4E6"/>
<path d="M24.375 8.3125C24.2637 8.3125 24.1615 8.35123 24.0812 8.41598C23.8237 8.6234 23.5303 8.78125 23.1996 8.78125H18.9879C18.6572 8.78125 18.3639 8.6234 18.1063 8.41598C18.026 8.35123 17.9238 8.3125 17.8125 8.3125C17.5536 8.3125 17.3438 8.52238 17.3438 8.78125C17.3438 8.89252 17.3825 8.99471 17.4472 9.0751C17.6546 9.33262 17.8125 9.626 17.8125 9.9567V12.5312H24.375V9.95664C24.375 9.62594 24.5328 9.33256 24.7403 9.07504C24.805 8.99465 24.8438 8.89246 24.8438 8.78119C24.8438 8.52238 24.6339 8.3125 24.375 8.3125Z" fill="#E2E4E6"/>
<path d="M24.375 8.78125C24.0443 8.78125 23.9062 9.38805 23.9062 9.71875V11.125C23.9062 11.6428 23.4865 12.0625 22.9688 12.0625H18.2812C18.0224 12.0625 17.8125 12.2724 17.8125 12.5312H24.375V9.9567C24.375 9.626 24.5328 9.33268 24.7402 9.0751C24.805 8.99471 24.8154 8.78125 24.375 8.78125Z" fill="#D0D7DA"/>
<path d="M12.1875 8.78125C11.8568 8.78125 11.7188 9.38805 11.7188 9.71875V11.125C11.7188 11.6428 11.299 12.0625 10.7812 12.0625H6.09375C5.83488 12.0625 5.625 12.2724 5.625 12.5312H12.1875V9.9567C12.1875 9.626 12.3453 9.33268 12.5527 9.0751C12.6175 8.99471 12.6279 8.78125 12.1875 8.78125Z" fill="#D0D7DA"/>
<path d="M26.25 13.4688H25.7812C25.5224 13.4688 25.3125 13.6786 25.3125 13.9375H4.6875C4.16971 13.9375 3.75 14.3572 3.75 14.875H26.25V13.4688Z" fill="#BABCBE"/>
<path d="M4.6875 13.9375H25.3125C25.3125 13.6786 25.5224 13.4688 25.7812 13.4688H26.25C26.25 12.951 25.8302 12.5312 25.3125 12.5312H4.6875C4.16977 12.5312 3.75 12.951 3.75 13.4688V14.875C3.75 14.3572 4.16977 13.9375 4.6875 13.9375Z" fill="#C5C9CC"/>
<path d="M2.8125 24.7188C2.8125 24.9764 3.02355 25.1875 3.28125 25.1875H6.09375C6.35145 25.1875 6.5625 24.9764 6.5625 24.7188V23.3125H2.8125V24.7188Z" fill="#73371B"/>
<path d="M23.4375 24.7188C23.4375 24.9764 23.6486 25.1875 23.9062 25.1875H26.7188C26.9764 25.1875 27.1875 24.9764 27.1875 24.7188V23.3125H23.4375V24.7188Z" fill="#73371B"/>
</svg>
