<svg width="30" height="29" viewBox="0 0 30 29" fill="none" xmlns="http://www.w3.org/2000/svg">
<path d="M28.7528 5.51272L15.3375 1.06605C15.0637 0.975379 14.768 0.975379 14.4942 1.06605L1.24216 5.51272C0.977396 5.60168 0.747249 5.77153 0.584209 5.99833C0.421169 6.22513 0.333476 6.49739 0.333496 6.77673V8.99939C0.333496 9.35299 0.473969 9.69213 0.724023 9.94219C0.974069 10.1923 1.31321 10.3327 1.66683 10.3327H2.3335V11.6661C2.3342 11.8991 2.39616 12.1278 2.51318 12.3293C2.63019 12.5308 2.79814 12.6979 3.00016 12.8141V23.6661H2.3335C1.97988 23.6661 1.64074 23.8065 1.39069 24.0566C1.14064 24.3066 1.00016 24.6458 1.00016 24.9994V26.9994C1.00016 27.353 1.14064 27.6921 1.39069 27.9422C1.64074 28.1923 1.97988 28.3327 2.3335 28.3327H27.6668C28.0204 28.3327 28.3596 28.1923 28.6096 27.9422C28.8597 27.6921 29.0002 27.353 29.0002 26.9994V24.9994C29.0002 24.6458 28.8597 24.3066 28.6096 24.0566C28.3596 23.8065 28.0204 23.6661 27.6668 23.6661H27.0002V12.8141C27.2022 12.6979 27.3702 12.5308 27.4872 12.3293C27.6042 12.1278 27.6661 11.8991 27.6668 11.6661V10.3327H28.3335C28.6871 10.3327 29.0262 10.1923 29.2763 9.94219C29.5264 9.69213 29.6668 9.35299 29.6668 8.99939V6.77806C29.6668 6.49786 29.5784 6.22479 29.4144 5.99766C29.2503 5.77053 29.0188 5.60084 28.7528 5.51272ZM23.0002 12.8141V23.6661H20.3335V12.8141C20.5355 12.6979 20.7035 12.5308 20.8205 12.3293C20.9375 12.1278 20.9994 11.8991 21.0002 11.6661V10.3327H22.3335V11.6661C22.3342 11.8991 22.3962 12.1278 22.5132 12.3293C22.6302 12.5308 22.7982 12.6979 23.0002 12.8141ZM17.6668 12.9994H19.0002V23.6661H17.6668V12.9994ZM19.6668 11.6661H17.0002V10.3327H19.6668V11.6661ZM16.3335 12.8141V23.6661H13.6668V12.8141C13.8688 12.6979 14.0368 12.5308 14.1538 12.3293C14.2708 12.1278 14.3328 11.8991 14.3335 11.6661V10.3327H15.6668V11.6661C15.6676 11.8991 15.7295 12.1278 15.8465 12.3293C15.9635 12.5308 16.1315 12.6979 16.3335 12.8141ZM11.0002 12.9994H12.3335V23.6661H11.0002V12.9994ZM13.0002 11.6661H10.3335V10.3327H13.0002V11.6661ZM9.66683 12.8141V23.6661H7.00016V12.8141C7.20216 12.6979 7.37016 12.5308 7.48716 12.3293C7.60416 12.1278 7.6661 11.8991 7.66683 11.6661V10.3327H9.00016V11.6661C9.0009 11.8991 9.06283 12.1278 9.17983 12.3293C9.29683 12.5308 9.46483 12.6979 9.66683 12.8141ZM6.3335 11.6661H3.66683V10.3327H6.3335V11.6661ZM4.3335 12.9994H5.66683V23.6661H4.3335V12.9994ZM27.6668 24.9994V26.9994H2.3335V24.9994H27.6668ZM24.3335 23.6661V12.9994H25.6668V23.6661H24.3335ZM26.3335 11.6661H23.6668V10.3327H26.3335V11.6661ZM1.66683 8.99939V6.77673L14.9182 2.33272L28.3335 6.77806V8.99939H1.66683Z" fill="white"/>
</svg>
