<svg width="25" height="25" viewBox="0 0 25 25" fill="none" xmlns="http://www.w3.org/2000/svg">
<g clip-path="url(#clip0_2919_21942)">
<path d="M18.4948 23.8727C18.4948 24.0874 18.3195 24.2619 18.1056 24.2619H3.07701C2.86229 24.2619 2.6886 24.0874 2.6886 23.8727V10.6588C2.6886 10.4441 2.86229 10.2695 3.07701 10.2695H18.1052C18.3191 10.2695 18.4944 10.4441 18.4944 10.6588V23.8727H18.4948Z" fill="#FFB000"/>
<path d="M2.6886 10.6588C2.6886 10.4441 2.86229 10.2695 3.07701 10.2695H18.1052C18.3191 10.2695 18.4944 10.4441 18.4944 10.6588V23.8727C18.4944 24.0874 18.3191 24.2619 18.1052 24.2619" fill="#FF9100"/>
<path d="M19.3119 23.9936C19.3119 24.1418 19.1921 24.2615 19.0448 24.2615H2.13864C1.99051 24.2615 1.87158 24.1418 1.87158 23.9936C1.87158 23.8463 1.99051 23.7266 2.13864 23.7266H19.0448C19.1921 23.7266 19.3119 23.8463 19.3119 23.9936Z" fill="#08A599"/>
<path d="M20.9601 10.1685L10.7569 5.35812C10.6514 5.30901 10.5308 5.30901 10.4257 5.35812L0.222494 10.1685C0.0585367 10.2452 -0.0303465 10.427 0.00943195 10.6044C0.048386 10.7822 0.206675 10.908 0.388513 10.908H20.7945C20.9759 10.908 21.1338 10.7817 21.1735 10.6044C21.2137 10.427 21.1248 10.2452 20.9601 10.1685Z" fill="#EA186D"/>
<path d="M10.7569 6.7839C10.6514 6.73479 10.5308 6.73479 10.4257 6.7839L1.67554 10.9083H19.5078L10.7569 6.7839Z" fill="#D10D54"/>
<path d="M10.4257 7.31808L2.80835 10.9084H18.3735L10.7569 7.31808C10.6514 7.26897 10.5309 7.26897 10.4257 7.31808Z" fill="#BC0F45"/>
<path d="M12.4802 15.9375H8.69099C8.47628 15.9375 8.30176 16.1112 8.30176 16.3259V24.2619H12.8686V16.3259C12.8687 16.1108 12.6949 15.9375 12.4802 15.9375Z" fill="#EA186D"/>
<path d="M12.4802 15.9375H8.69099C8.68532 15.9375 8.68084 15.9407 8.67517 15.9407L12.8686 19.6411V16.3259C12.8687 16.1108 12.6949 15.9375 12.4802 15.9375Z" fill="#D10D54"/>
<path opacity="0.6" d="M16.5831 12.6574C19.7013 12.6574 22.2292 10.1295 22.2292 7.0113C22.2292 3.89307 19.7013 1.36523 16.5831 1.36523C13.4648 1.36523 10.937 3.89307 10.937 7.0113C10.937 10.1295 13.4648 12.6574 16.5831 12.6574Z" fill="#5CF7FF"/>
<path d="M16.5831 13.2853C13.1239 13.2853 10.3096 10.471 10.3096 7.01179C10.3096 3.55256 13.1235 0.738281 16.5831 0.738281C20.042 0.738281 22.8563 3.55261 22.8563 7.01184C22.8563 10.4711 20.042 13.2853 16.5831 13.2853ZM16.5831 1.99285C13.8155 1.99285 11.5641 4.2442 11.5641 7.01143C11.5641 9.77866 13.8151 12.0304 16.5831 12.0304C19.3504 12.0304 21.6013 9.77907 21.6013 7.01184C21.6013 4.24461 19.3504 1.99285 16.5831 1.99285Z" fill="#17DD9F"/>
<path d="M17.4537 1.60938C13.9949 1.60938 11.1805 4.4237 11.1805 7.88294C11.1805 9.39158 11.7159 10.7764 12.6064 11.8601C13.6896 12.7493 15.0745 13.2855 16.5831 13.2855C20.0419 13.2855 22.8562 10.4712 22.8562 7.01193C22.8562 5.50329 22.3213 4.11846 21.4308 3.0348C20.3472 2.14515 18.9623 1.60938 17.4537 1.60938ZM17.4537 12.9015C15.8485 12.9015 14.4206 12.1413 13.5013 10.9643C12.3252 10.0454 11.5641 8.61714 11.5641 7.01193C11.5641 4.2447 13.8155 1.99335 16.5831 1.99335C18.1883 1.99335 19.6166 2.75352 20.5354 3.93059C21.712 4.85029 22.4727 6.27773 22.4727 7.88294C22.4727 10.6501 20.2213 12.9015 17.4537 12.9015Z" fill="#08C19D"/>
<path d="M24.3718 15.4288C24.2115 15.4288 24.0507 15.3671 23.9286 15.2449L20.2693 11.5848C20.0237 11.3396 20.0237 10.9435 20.2693 10.6975C20.5144 10.4524 20.9109 10.4524 21.1565 10.6975L24.8158 14.3577C25.0614 14.6028 25.0614 14.9998 24.8158 15.2449C24.6933 15.3667 24.5326 15.4288 24.3718 15.4288Z" fill="#17DD9F"/>
</g>
<defs>
<clipPath id="clip0_2919_21942">
<rect width="25" height="25" fill="white"/>
</clipPath>
</defs>
</svg>
