<svg width="20" height="20" viewBox="0 0 20 20" fill="none" xmlns="http://www.w3.org/2000/svg">
<g clip-path="url(#clip0_2919_15498)">
<path d="M17.3189 9.74771C17.3189 15.7398 14.0434 19.9997 10 19.9997C5.95674 19.9997 2.68115 15.7398 2.68115 9.74771C2.68115 5.6296 5.95674 2.29102 10 2.29102C14.0434 2.29102 17.3189 5.6296 17.3189 9.74771Z" fill="#40596B"/>
<path d="M12.6496 8.68116C12.9213 9.01974 13.1221 9.96462 13.1221 9.96462C13.1221 9.96462 11.9055 9.08273 9.87009 8.68116C8.39765 8.38982 6.61813 6.11816 6.61813 6.11816C6.25592 10.2599 3.46458 11.0749 2.74805 11.2205C3.24017 16.4253 6.29529 20.0001 10 20.0001C13.874 20.0001 17.0433 16.0906 17.2992 10.4922C15.9921 9.3032 12.6496 8.68116 12.6496 8.68116Z" fill="#FFD15C"/>
<path d="M2.77953 8.51953H1.33465C0.598425 8.51953 0 9.12583 0 9.8778V11.8935C0 12.6455 0.598425 13.2518 1.33465 13.2518H3.08661C2.82283 12.1731 2.6811 10.9998 2.6811 9.74788C2.6811 9.32662 2.7126 8.91717 2.77953 8.51953Z" fill="#334A5E"/>
<path d="M18.6653 8.51953H17.2204C17.2834 8.91717 17.3188 9.32662 17.3188 9.74788C17.3188 10.9998 17.1771 12.1731 16.9133 13.2518H18.6653C19.4015 13.2518 19.9999 12.6455 19.9999 11.8935V9.8778C19.9999 9.12583 19.4055 8.51953 18.6653 8.51953Z" fill="#334A5E"/>
<path d="M18.6654 13.2524H18V15.1264H11.7795V16.4847H19.3307V13.0713C19.1378 13.1855 18.9095 13.2524 18.6654 13.2524Z" fill="#F2F2F2"/>
<path d="M11.9764 16.9683H9.06296C9.00391 16.9683 8.95667 16.9211 8.95667 16.862V14.7518C8.95667 14.6928 9.00391 14.6455 9.06296 14.6455H11.9764C12.0354 14.6455 12.0826 14.6928 12.0826 14.7518V16.862C12.0826 16.9211 12.0354 16.9683 11.9764 16.9683Z" fill="#40596B"/>
<path d="M10.5355 0H9.25199C4.53152 0 0.692934 3.90157 0.669312 8.70079C0.866162 8.58661 1.09057 8.51968 1.33467 8.51968H2.00789C2.126 4.55118 5.33073 1.35827 9.25593 1.35827H10.5355C14.4607 1.35827 17.6654 4.55118 17.7835 8.51968H18.6693C18.8268 8.51968 18.9764 8.54724 19.1181 8.59842C19.0394 3.84646 15.2205 0 10.5355 0Z" fill="#F2F2F2"/>
</g>
<defs>
<clipPath id="clip0_2919_15498">
<rect width="20" height="20" fill="white"/>
</clipPath>
</defs>
</svg>
