<svg width="31" height="30" viewBox="0 0 31 30" fill="none" xmlns="http://www.w3.org/2000/svg">
<path d="M29.875 28.75H21.5643L19.4848 22.9738C20.2758 22.6526 21.0197 22.2389 21.7028 21.746C22.1839 23.0166 23.8199 23.3665 24.7808 22.4058C25.7444 21.4421 25.3841 19.8066 24.1216 19.3269C25.0641 18.0205 25.717 16.4923 25.9864 14.8368C27.2204 15.3895 28.625 14.4823 28.625 13.125C28.625 11.7673 27.2203 10.8606 25.9864 11.4132C25.7171 9.75769 25.0641 8.2295 24.1217 6.923C25.3831 6.44381 25.745 4.8085 24.7809 3.84419C23.824 2.8875 22.1859 3.22769 21.7029 4.50394C20.3962 3.56113 18.8677 2.90794 17.2119 2.63856C17.7644 1.40419 16.8574 0 15.5 0C14.1424 0 13.2356 1.40475 13.7882 2.63856C12.1323 2.90794 10.6038 3.56113 9.29712 4.50394C8.81906 3.24069 7.18525 2.87825 6.21925 3.84419C5.25513 4.80831 5.61625 6.4435 6.87831 6.923C5.93587 8.2295 5.28294 9.75769 5.01363 11.4132C3.77944 10.8605 2.375 11.7676 2.375 13.125C2.375 14.4826 3.77975 15.3895 5.01363 14.8368C5.28294 16.4924 5.93587 18.0206 6.87831 19.327C5.61706 19.8061 5.25494 21.4416 6.21925 22.4059C7.18338 23.3699 8.81825 23.0115 9.29712 21.7461C9.88663 22.1714 10.5211 22.5377 11.1923 22.8366L8.82687 28.75H1.125C0.779875 28.75 0.5 29.0299 0.5 29.375C0.5 29.7201 0.779875 30 1.125 30C2.92762 30 24.0534 30.0001 29.875 30C30.2202 30 30.5 29.7201 30.5 29.375C30.5 29.0299 30.2202 28.75 29.875 28.75ZM23.897 21.5219C23.6529 21.7661 23.2573 21.7663 23.0131 21.5219C22.7693 21.2783 22.7693 20.8818 23.0131 20.638C23.2573 20.3938 23.6526 20.3937 23.897 20.6379C24.1406 20.8816 24.1406 21.2783 23.897 21.5219ZM26.75 12.5C27.0947 12.5 27.375 12.7804 27.375 13.125C27.375 13.4696 27.0947 13.75 26.75 13.75C26.4054 13.75 26.125 13.4696 26.125 13.125C26.125 12.7804 26.4054 12.5 26.75 12.5ZM23.0131 4.72806C23.2571 4.48394 23.6526 4.48369 23.8969 4.72806C24.1406 4.97175 24.1406 5.36831 23.897 5.61194C23.6528 5.85619 23.2574 5.85625 23.0131 5.61194C22.7694 5.36825 22.7694 4.97175 23.0131 4.72806ZM14.875 1.875C14.875 1.53038 15.1554 1.25 15.5 1.25C15.8447 1.25 16.125 1.53038 16.125 1.875C16.125 2.21962 15.8447 2.5 15.5 2.5C15.1554 2.5 14.875 2.21962 14.875 1.875ZM7.10313 4.72806C7.34731 4.48381 7.74269 4.48375 7.987 4.72806C8.23063 4.97175 8.23063 5.36825 7.987 5.61194C7.74281 5.85619 7.34744 5.85625 7.10313 5.61194C6.85944 5.36825 6.85944 4.97175 7.10313 4.72806ZM4.25 13.75C3.90538 13.75 3.625 13.4696 3.625 13.125C3.625 12.7804 3.90538 12.5 4.25 12.5C4.59469 12.5 4.875 12.7804 4.875 13.125C4.875 13.4696 4.59469 13.75 4.25 13.75ZM7.987 21.5219C7.74281 21.7661 7.34737 21.7663 7.10313 21.5219C6.85944 21.2783 6.85944 20.8818 7.10313 20.638C7.34731 20.3938 7.74269 20.3938 7.987 20.638C8.23069 20.8817 8.23069 21.2782 7.987 21.5219ZM6.125 13.125C6.125 7.95563 10.3306 3.75 15.5 3.75C20.6694 3.75 24.875 7.95563 24.875 13.125C24.875 17.0343 22.4695 20.3919 19.0611 21.7968L16.3372 14.2304C17.3051 13.8853 18 12.9599 18 11.875C18 10.4965 16.8786 9.375 15.5 9.375C14.1215 9.375 13 10.4965 13 11.875C13 12.9508 13.6831 13.8699 14.6382 14.2218L11.6567 21.6755C8.39838 20.2051 6.125 16.9256 6.125 13.125ZM16.125 24.375C16.125 24.7196 15.8447 25 15.5 25C15.1554 25 14.875 24.7196 14.875 24.375C14.875 24.0304 15.1554 23.75 15.5 23.75C15.8447 23.75 16.125 24.0304 16.125 24.375ZM12.8285 22.1116L15.4692 15.5098L17.8759 22.1947C16.2261 22.6271 14.4725 22.6011 12.8285 22.1116ZM15.5 13.125C14.8108 13.125 14.25 12.5642 14.25 11.875C14.25 11.1858 14.8108 10.625 15.5 10.625C16.1892 10.625 16.75 11.1858 16.75 11.875C16.75 12.5642 16.1892 13.125 15.5 13.125ZM12.3624 23.277C12.8249 23.4203 13.3012 23.5322 13.7882 23.6115C13.2355 24.8452 14.1426 26.25 15.5 26.25C16.8574 26.25 17.7644 24.8459 17.2119 23.6114C17.5815 23.5513 17.9447 23.4721 18.3006 23.3746L20.2358 28.75H10.1732L12.3624 23.277Z" fill="white"/>
</svg>
