<svg width="30" height="30" viewBox="0 0 30 30" fill="none" xmlns="http://www.w3.org/2000/svg">
<path d="M28.2651 14.1547H26.336V11.4434H3.82599V14.1547H1.73513C0.778358 14.1547 0 14.9402 0 15.9056C0 16.8711 0.778358 17.6566 1.73513 17.6566H3.82599V22.0722C3.82599 24.5499 5.83604 26.577 8.29299 26.577H21.8687C24.3259 26.577 26.336 24.5498 26.336 22.0722V17.6566H28.2652C29.2218 17.6566 30 16.8711 30 15.9056C29.9999 14.9402 29.2217 14.1547 28.2651 14.1547ZM1.73513 16.6073C1.3507 16.6073 1.03787 16.2925 1.03787 15.9057C1.03787 15.5188 1.35064 15.2041 1.73513 15.2041H3.82599V16.6073H1.73513ZM28.2651 16.6073H26.336V15.2041H28.2651C28.6494 15.2041 28.9621 15.5189 28.9621 15.9057C28.9621 16.2925 28.6494 16.6073 28.2651 16.6073Z" fill="#C13421"/>
<path d="M21.567 12.1465V19.8529C21.567 22.0263 19.8245 23.7881 17.675 23.7881H12.4857C10.3362 23.7881 8.59375 22.0263 8.59375 19.8529V12.1465H21.567Z" fill="#FF4328"/>
<path d="M26.3362 11.4478C26.3362 12.9767 21.2972 14.216 15.0812 14.216C8.86522 14.216 3.82617 12.9765 3.82617 11.4478C3.82617 9.91912 8.86517 8.67969 15.0812 8.67969C21.2972 8.67969 26.3362 9.919 26.3362 11.4478Z" fill="#97BAA8"/>
<path d="M26.3362 11.4479C26.3362 11.7987 26.0701 12.1344 25.5859 12.4433C23.9602 11.4064 19.8704 10.6706 15.0814 10.6706C10.2922 10.6706 6.2022 11.4064 4.57676 12.4434C4.09236 12.1345 3.82617 11.7988 3.82617 11.4478C3.82617 9.919 8.86522 8.67969 15.0812 8.67969C21.2972 8.67969 26.3362 9.91906 26.3362 11.4479Z" fill="#981700"/>
<path d="M13.9173 6.4382C14.7223 7.64922 14.8973 9.81027 13.8613 10.9752C13.7588 11.0904 13.6173 11.149 13.4752 11.149C13.3516 11.149 13.2276 11.1046 13.1284 11.0145C12.9153 10.8207 12.8979 10.489 13.0896 10.2735C13.7038 9.58286 13.6872 7.97318 13.0561 7.02373C12.4784 6.15508 12.236 4.90885 12.4388 3.84895C12.4933 3.56448 12.7651 3.37833 13.0469 3.43352C13.3283 3.48854 13.5123 3.76387 13.4578 4.04834C13.3067 4.83742 13.4915 5.79783 13.9173 6.4382ZM17.1286 6.43826C16.7026 5.79742 16.5178 4.83696 16.6689 4.0484C16.7234 3.76393 16.5395 3.48866 16.2581 3.43352C15.9767 3.37838 15.7044 3.56442 15.6499 3.84889C15.447 4.90826 15.6893 6.15443 16.2672 7.02373C16.8983 7.97318 16.9149 9.58292 16.3006 10.2737C16.109 10.4892 16.1264 10.8209 16.3395 11.0147C16.4387 11.1048 16.5627 11.1492 16.6863 11.1492C16.8283 11.1492 16.9699 11.0905 17.0724 10.9753C18.1085 9.81027 17.9336 7.64916 17.1286 6.43826Z" fill="#FFBB5E"/>
</svg>
