<svg width="20" height="20" viewBox="0 0 20 20" fill="none" xmlns="http://www.w3.org/2000/svg">
<g clip-path="url(#clip0_2919_22339)">
<path d="M20 12.0202V7.57576H17.244C17.0974 7.09616 16.9038 6.63394 16.6642 6.19273L18.4994 4.35758L15.3568 1.21455L13.4962 3.07556C13.0251 2.8299 12.5317 2.63556 12.0202 2.49455V0H10V6.14141C12.1277 6.14141 13.8586 7.87232 13.8586 10C13.8586 12.1277 12.1277 13.8586 10 13.8586V20H12.4242V16.977C12.8319 16.8396 13.2263 16.6675 13.6053 16.4622L15.6424 18.4994L18.7855 15.3568L16.7224 13.2941C16.9354 12.8857 17.1095 12.4602 17.244 12.0202H20Z" fill="#005ECE"/>
<path d="M6.14141 10C6.14141 7.87232 7.87232 6.14141 10 6.14141V0H7.57576V2.61899C7.07394 2.78788 6.59313 3.00889 6.13697 3.28L4.35758 1.50061L1.21455 4.64323L3.14343 6.57212C2.9301 7.02424 2.76323 7.49455 2.64404 7.9798H0V12.4242H2.89212C3.05091 12.8537 3.24808 13.2667 3.48202 13.661L1.50061 15.6424L4.64323 18.7855L6.77414 16.6541C7.16283 16.8376 7.56566 16.9871 7.9798 17.101V20H10V13.8586C7.87232 13.8586 6.14141 12.1277 6.14141 10Z" fill="#2488FF"/>
</g>
<defs>
<clipPath id="clip0_2919_22339">
<rect width="20" height="20" fill="white"/>
</clipPath>
</defs>
</svg>
