<svg width="33" height="32" viewBox="0 0 33 32" fill="none" xmlns="http://www.w3.org/2000/svg">
<g clip-path="url(#clip0_1566_78333)">
<path d="M12.4998 29.3327C13.2362 29.3327 13.8332 28.7357 13.8332 27.9993C13.8332 27.263 13.2362 26.666 12.4998 26.666C11.7635 26.666 11.1665 27.263 11.1665 27.9993C11.1665 28.7357 11.7635 29.3327 12.4998 29.3327Z" stroke="white" stroke-width="2" stroke-linecap="round" stroke-linejoin="round"/>
<path d="M27.1668 29.3327C27.9032 29.3327 28.5002 28.7357 28.5002 27.9993C28.5002 27.263 27.9032 26.666 27.1668 26.666C26.4304 26.666 25.8335 27.263 25.8335 27.9993C25.8335 28.7357 26.4304 29.3327 27.1668 29.3327Z" stroke="white" stroke-width="2" stroke-linecap="round" stroke-linejoin="round"/>
<path d="M1.8335 1.33398H7.16683L10.7402 19.1873C10.8621 19.8012 11.196 20.3526 11.6836 20.745C12.1711 21.1375 12.7811 21.346 13.4068 21.334H26.3668C26.9926 21.346 27.6026 21.1375 28.0901 20.745C28.5776 20.3526 28.9116 19.8012 29.0335 19.1873L31.1668 8.00065H8.50016" stroke="white" stroke-width="2" stroke-linecap="round" stroke-linejoin="round"/>
</g>
<defs>
<clipPath id="clip0_1566_78333">
<rect width="32" height="32" fill="white" transform="translate(0.5)"/>
</clipPath>
</defs>
</svg>
