<svg width="30" height="30" viewBox="0 0 30 30" fill="none" xmlns="http://www.w3.org/2000/svg">
<path d="M11.25 3.75V8.4375H9.375V3.75C9.375 1.68229 11.0573 0 13.125 0H24.8438C26.9115 0 28.5938 1.68229 28.5938 3.75V29.0625V30H26.7188V29.0625V3.75C26.7188 2.71594 25.8778 1.875 24.8438 1.875H13.125C12.0909 1.875 11.25 2.71594 11.25 3.75Z" fill="#B1C3D0"/>
<path d="M1.40625 13.125H20.1562C20.674 13.125 21.0938 12.7053 21.0938 12.1875V10.3125C21.0938 9.79471 20.674 9.375 20.1562 9.375H1.40625C0.888457 9.375 0.46875 9.79471 0.46875 10.3125V12.1875C0.46875 12.7053 0.888457 13.125 1.40625 13.125Z" fill="#B1C3D0"/>
<path d="M1.40625 13.125H20.1562C20.1562 13.6428 19.7365 14.0625 19.2188 14.0625H2.34375C1.82596 14.0625 1.40625 13.6428 1.40625 13.125Z" fill="#566E7F"/>
<path d="M14.9094 16.5985C14.7326 16.3578 14.3298 16.3578 14.1531 16.5985C13.9815 16.8329 13.125 18.0391 13.125 18.7935C13.125 19.5456 13.7558 20.1572 14.5312 20.1572C15.3067 20.1572 15.9375 19.5456 15.9375 18.7935C15.9375 18.0391 15.081 16.8329 14.9094 16.5985Z" fill="#50BEE7"/>
<path d="M14.9094 16.5983C14.85 16.5173 14.7622 16.4737 14.6688 16.4473C14.9819 16.9194 15.4688 17.7446 15.4688 18.3138C15.4688 19.0659 14.838 19.6774 14.0626 19.6774C13.787 19.6774 13.5317 19.5973 13.3145 19.464C13.5568 19.8757 14.0085 20.157 14.5313 20.157C15.3068 20.157 15.9376 19.5454 15.9376 18.7933C15.9376 18.0389 15.0811 16.8327 14.9094 16.5983Z" fill="#00ACDD"/>
<path d="M11.1594 16.5868C10.9826 16.3461 10.5798 16.3461 10.4031 16.5868C10.2315 16.8212 9.375 18.0274 9.375 18.7818C9.375 19.5339 10.0058 20.1455 10.7812 20.1455C11.5567 20.1455 12.1875 19.5339 12.1875 18.7818C12.1875 18.0274 11.331 16.8212 11.1594 16.5868Z" fill="#50BEE7"/>
<path d="M11.1594 16.5866C11.1 16.5056 11.0122 16.462 10.9188 16.4355C11.2319 16.9077 11.7188 17.7329 11.7188 18.3021C11.7188 19.0542 11.088 19.6657 10.3126 19.6657C10.037 19.6657 9.78166 19.5856 9.56445 19.4523C9.8068 19.8639 10.2585 20.1452 10.7813 20.1452C11.5568 20.1452 12.1876 19.5336 12.1876 18.7815C12.1876 18.0272 11.3311 16.821 11.1594 16.5866Z" fill="#00ACDD"/>
<path d="M7.40936 16.5868C7.23264 16.3461 6.8298 16.3461 6.65314 16.5868C6.48146 16.8212 5.625 18.0274 5.625 18.7818C5.625 19.5339 6.25582 20.1455 7.03125 20.1455C7.80668 20.1455 8.4375 19.5339 8.4375 18.7818C8.4375 18.0274 7.58104 16.8212 7.40936 16.5868Z" fill="#50BEE7"/>
<path d="M7.40943 16.5866C7.34996 16.5056 7.26225 16.462 7.16879 16.4355C7.48191 16.9077 7.96883 17.7329 7.96883 18.3021C7.96883 19.0542 7.33801 19.6657 6.56258 19.6657C6.28701 19.6657 6.03166 19.5856 5.81445 19.4523C6.0568 19.8639 6.5085 20.1452 7.03133 20.1452C7.80676 20.1452 8.43758 19.5336 8.43758 18.7815C8.43758 18.0272 7.58111 16.821 7.40943 16.5866Z" fill="#00ACDD"/>
<path d="M14.9094 26.4423C14.7326 26.2015 14.3298 26.2015 14.1531 26.4423C13.9815 26.6767 13.125 27.8829 13.125 28.6373C13.125 29.3894 13.7558 30.0009 14.5312 30.0009C15.3067 30.0009 15.9375 29.3893 15.9375 28.6373C15.9375 27.8829 15.081 26.6767 14.9094 26.4423Z" fill="#50BEE7"/>
<path d="M14.9094 26.4421C14.85 26.361 14.7622 26.3175 14.6688 26.291C14.9819 26.7631 15.4688 27.5884 15.4688 28.1575C15.4688 28.9096 14.838 29.5212 14.0626 29.5212C13.787 29.5212 13.5317 29.4411 13.3145 29.3078C13.5568 29.7195 14.0085 30.0007 14.5313 30.0007C15.3068 30.0007 15.9376 29.3891 15.9376 28.6371C15.9376 27.8827 15.0811 26.6764 14.9094 26.4421Z" fill="#00ACDD"/>
<path d="M11.1594 26.4306C10.9826 26.1898 10.5798 26.1898 10.4031 26.4306C10.2315 26.6649 9.375 27.8712 9.375 28.6256C9.375 29.3777 10.0058 29.9892 10.7812 29.9892C11.5567 29.9892 12.1875 29.3776 12.1875 28.6256C12.1875 27.8712 11.331 26.6649 11.1594 26.4306Z" fill="#50BEE7"/>
<path d="M11.1594 26.4304C11.1 26.3493 11.0122 26.3058 10.9188 26.2793C11.2319 26.7514 11.7188 27.5767 11.7188 28.1458C11.7188 28.8979 11.088 29.5095 10.3126 29.5095C10.037 29.5095 9.78166 29.4294 9.56445 29.2961C9.8068 29.7077 10.2585 29.9889 10.7813 29.9889C11.5568 29.9889 12.1876 29.3773 12.1876 28.6253C12.1876 27.8709 11.3311 26.6647 11.1594 26.4304Z" fill="#00ACDD"/>
<path d="M7.40936 26.4306C7.23264 26.1898 6.8298 26.1898 6.65314 26.4306C6.48146 26.6649 5.625 27.8712 5.625 28.6256C5.625 29.3777 6.25582 29.9892 7.03125 29.9892C7.80668 29.9892 8.4375 29.3776 8.4375 28.6256C8.4375 27.8712 7.58104 26.6649 7.40936 26.4306Z" fill="#50BEE7"/>
<path d="M7.40943 26.4304C7.34996 26.3493 7.26225 26.3058 7.16879 26.2793C7.48191 26.7514 7.96883 27.5767 7.96883 28.1458C7.96883 28.8979 7.33801 29.5095 6.56258 29.5095C6.28701 29.5095 6.03166 29.4294 5.81445 29.2961C6.0568 29.7077 6.5085 29.9889 7.03133 29.9889C7.80676 29.9889 8.43758 29.3773 8.43758 28.6253C8.43758 27.8709 7.58111 26.6647 7.40943 26.4304Z" fill="#00ACDD"/>
<path d="M16.7844 21.286C16.6076 21.0453 16.2048 21.0453 16.0281 21.286C15.8565 21.5204 15 22.7266 15 23.481C15 24.2331 15.6308 24.8447 16.4062 24.8447C17.1817 24.8447 17.8125 24.2331 17.8125 23.481C17.8125 22.7266 16.956 21.5204 16.7844 21.286Z" fill="#50BEE7"/>
<path d="M16.7844 21.2858C16.725 21.2048 16.6372 21.1612 16.5438 21.1348C16.8569 21.6069 17.3438 22.4321 17.3438 23.0013C17.3438 23.7534 16.713 24.3649 15.9376 24.3649C15.662 24.3649 15.4067 24.2848 15.1895 24.1515C15.4318 24.5632 15.8835 24.8445 16.4063 24.8445C17.1818 24.8445 17.8126 24.2329 17.8126 23.4808C17.8126 22.7264 16.9561 21.5202 16.7844 21.2858Z" fill="#00ACDD"/>
<path d="M13.0344 21.286C12.8576 21.0453 12.4548 21.0453 12.2781 21.286C12.1065 21.5204 11.25 22.7266 11.25 23.481C11.25 24.2331 11.8808 24.8447 12.6562 24.8447C13.4317 24.8447 14.0625 24.2331 14.0625 23.481C14.0625 22.7266 13.206 21.5204 13.0344 21.286Z" fill="#50BEE7"/>
<path d="M13.0344 21.2858C12.975 21.2048 12.8872 21.1612 12.7938 21.1348C13.1069 21.6069 13.5938 22.4321 13.5938 23.0013C13.5938 23.7534 12.963 24.3649 12.1876 24.3649C11.912 24.3649 11.6567 24.2848 11.4395 24.1515C11.6818 24.5632 12.1335 24.8445 12.6563 24.8445C13.4318 24.8445 14.0626 24.2329 14.0626 23.4808C14.0626 22.7264 13.2061 21.5202 13.0344 21.2858Z" fill="#00ACDD"/>
<path d="M9.28436 21.286C9.10764 21.0453 8.7048 21.0453 8.52814 21.286C8.35646 21.5204 7.5 22.7266 7.5 23.481C7.5 24.2331 8.13082 24.8447 8.90625 24.8447C9.68168 24.8447 10.3125 24.2331 10.3125 23.481C10.3125 22.7266 9.45604 21.5204 9.28436 21.286Z" fill="#50BEE7"/>
<path d="M9.28443 21.2858C9.22496 21.2048 9.13725 21.1612 9.04379 21.1348C9.35691 21.6069 9.84383 22.4321 9.84383 23.0013C9.84383 23.7534 9.21301 24.3649 8.43758 24.3649C8.16201 24.3649 7.90666 24.2848 7.68945 24.1515C7.9318 24.5632 8.3835 24.8445 8.90633 24.8445C9.68176 24.8445 10.3126 24.2329 10.3126 23.4808C10.3126 22.7264 9.45611 21.5202 9.28443 21.2858Z" fill="#00ACDD"/>
<path d="M5.53436 21.286C5.35764 21.0453 4.9548 21.0453 4.77814 21.286C4.60646 21.5204 3.75 22.7266 3.75 23.481C3.75 24.2331 4.38082 24.8447 5.15625 24.8447C5.93168 24.8447 6.5625 24.2331 6.5625 23.481C6.5625 22.7266 5.70604 21.5204 5.53436 21.286Z" fill="#50BEE7"/>
<path d="M5.53443 21.2858C5.47496 21.2048 5.38725 21.1612 5.29379 21.1348C5.60691 21.6069 6.09383 22.4321 6.09383 23.0013C6.09383 23.7534 5.46301 24.3649 4.68758 24.3649C4.41201 24.3649 4.15666 24.2848 3.93945 24.1515C4.1818 24.5632 4.6335 24.8445 5.15633 24.8445C5.93176 24.8445 6.56258 24.2329 6.56258 23.4808C6.56258 22.7264 5.70611 21.5202 5.53443 21.2858Z" fill="#00ACDD"/>
<path d="M20.1562 11.25V11.7188C20.1562 11.9776 19.9464 12.1875 19.6875 12.1875H2.34375C1.82596 12.1875 1.40625 12.6072 1.40625 13.125H17.8125H2.8125H20.1562C20.674 13.125 21.0938 12.7053 21.0938 12.1875V10.3125C20.576 10.3125 20.1562 10.7322 20.1562 11.25Z" fill="#8EADBE"/>
<path d="M11.25 3.75V8.4375H12.1875V3.75C12.1875 2.71594 13.0284 1.875 14.0625 1.875H13.125C12.0909 1.875 11.25 2.71594 11.25 3.75Z" fill="#8EADBE"/>
<path d="M25.7812 0H24.8438C26.9115 0 28.5938 1.68229 28.5938 3.75V29.0625V30H29.5312V29.0625V3.75C29.5312 1.68229 27.849 0 25.7812 0Z" fill="#8EADBE"/>
<path d="M12.2423 7.03125H9.32016C9.26016 7.03125 9.20051 7.04883 9.15164 7.08363C8.43598 7.59346 7.96875 8.42936 7.96875 9.375H13.5938C13.5938 8.42936 13.1265 7.59346 12.4109 7.08363C12.362 7.04883 12.3023 7.03125 12.2423 7.03125Z" fill="#566E7F"/>
</svg>
