<svg width="31" height="30" viewBox="0 0 31 30" fill="none" xmlns="http://www.w3.org/2000/svg">
<path d="M29.0938 3.28125V5.15625H19.25L18.3125 7.03125H15.5H12.6875H10.8125V5.15625H12.6875H15.5H17.375L18.3125 3.28125H29.0938Z" fill="#ED1C24"/>
<path d="M28.1562 24.8438C28.4046 24.8445 28.6427 24.9435 28.8184 25.1191C28.994 25.2948 29.093 25.5329 29.0938 25.7812C29.0919 26.0293 28.9925 26.2667 28.8171 26.4421C28.6417 26.6175 28.4043 26.7169 28.1562 26.7188H23.4688C23.2204 26.718 22.9823 26.619 22.8066 26.4434C22.631 26.2677 22.532 26.0296 22.5312 25.7812C22.5331 25.5332 22.6325 25.2958 22.8079 25.1204C22.9833 24.945 23.2207 24.8456 23.4688 24.8438H28.1562Z" fill="#3D9AE2"/>
<path d="M28.1562 22.9688V24.8438H23.4688V22.9688C23.4688 22.4715 23.2712 21.9945 22.9196 21.6429C22.568 21.2913 22.091 21.0938 21.5938 21.0938H17.8438V16.4062H21.5938C23.3337 16.4081 25.0018 17.1001 26.2321 18.3304C27.4624 19.5607 28.1544 21.2288 28.1562 22.9688Z" fill="#5AAAE7"/>
<path d="M18.8375 12.1312C19.0339 12.3279 19.1676 12.5784 19.2218 12.851C19.276 13.1236 19.2481 13.4062 19.1418 13.663C19.0355 13.9198 18.8554 14.1393 18.6244 14.2939C18.3934 14.4484 18.1217 14.531 17.8438 14.5312H10.3438C9.97081 14.5312 9.61311 14.3831 9.34939 14.1194C9.08567 13.8556 8.9375 13.4979 8.9375 13.125C8.9375 12.7521 9.08567 12.3944 9.34939 12.1306C9.61311 11.8669 9.97081 11.7188 10.3438 11.7188H17.8438C18.0284 11.7188 18.2112 11.7552 18.3817 11.826C18.5523 11.8967 18.7071 12.0005 18.8375 12.1312Z" fill="#3D9AE2"/>
<path d="M17.8438 16.4062V21.0938H10.3438V16.4062V14.5312H17.8438V16.4062Z" fill="#78B9EB"/>
<path d="M16.4375 8.90625V11.7188H11.75V8.90625H12.6875H15.5H16.4375Z" fill="#5AAAE7"/>
<path d="M15.5 7.03125H12.6875V8.90625H15.5V7.03125Z" fill="#FF5023"/>
<path d="M15.5 3.28125H12.6875V5.15625H15.5V3.28125Z" fill="#FF5023"/>
<path d="M10.3438 16.4062H8.46875V21.0938H10.3438V16.4062Z" fill="#5AAAE7"/>
<path d="M8.46875 21.0938V21.5625H5.65625V15.9375H8.46875V16.4062V21.0938Z" fill="#3D9AE2"/>
<path d="M5.65625 15.9375V21.5625V22.5H1.90625V15H5.65625V15.9375Z" fill="#5AAAE7"/>
<path d="M15.5 7.03125H12.6875V7.96875H15.5V7.03125Z" fill="#ED1C24"/>
<path d="M17.8438 14.5312H10.3438V15.4688H17.8438V14.5312Z" fill="#5AAAE7"/>
<path d="M4.25 16.4062H3.3125V17.3438H4.25V16.4062Z" fill="#96C8EF"/>
<path d="M12.6875 18.75H11.75V19.6875H12.6875V18.75Z" fill="#96C8EF"/>
<path d="M15.5 18.75H13.625V19.6875H15.5V18.75Z" fill="#96C8EF"/>
</svg>
