<svg width="21" height="20" viewBox="0 0 21 20" fill="none" xmlns="http://www.w3.org/2000/svg">
<g clip-path="url(#clip0_584_20588)">
<path d="M11.3401 19.9984H8.90945C8.58363 19.9984 8.31949 19.7343 8.31949 19.4084V18.2786C7.41398 18.0737 6.54219 17.7124 5.75547 17.2159L4.95609 18.0152C4.84547 18.1259 4.69539 18.188 4.53895 18.188C4.3825 18.188 4.23242 18.1259 4.1218 18.0152L2.40309 16.2965C2.1727 16.0661 2.1727 15.6926 2.40309 15.4622L3.20246 14.6629C2.70594 13.8762 2.34465 13.0044 2.13984 12.0988H1.00988C0.684063 12.0988 0.419922 11.8347 0.419922 11.5089V9.07824C0.419922 8.75242 0.684063 8.48828 1.00988 8.48828H2.62625C2.95207 8.48828 3.21621 8.75242 3.21621 9.07824C3.21621 9.40406 2.95207 9.6682 2.62625 9.6682H1.59984V10.9189H2.62625C2.91594 10.9189 3.16277 11.1292 3.20871 11.4152C3.38039 12.4827 3.80676 13.5116 4.4418 14.3906C4.61137 14.6254 4.58551 14.9485 4.38074 15.1532L3.65457 15.8794L4.53898 16.7638L5.26516 16.0377C5.46992 15.8329 5.79301 15.807 6.02777 15.9766C6.90691 16.6116 7.93582 17.038 9.0032 17.2097C9.28922 17.2557 9.49949 17.5025 9.49949 17.7921V18.8186H10.7502V17.792C10.7502 17.5023 10.9605 17.2556 11.2465 17.2096C12.3138 17.0379 13.3428 16.6115 14.2219 15.9765C14.4566 15.8069 14.7798 15.8328 14.9845 16.0375L15.7107 16.7637L16.5951 15.8793L15.8689 15.1531C15.6385 14.9227 15.6385 14.5492 15.8689 14.3188C16.0993 14.0884 16.4729 14.0884 16.7033 14.3188L17.8466 15.4621C18.077 15.6925 18.077 16.066 17.8466 16.2964L16.1279 18.0151C16.0173 18.1257 15.8672 18.1879 15.7107 18.1879C15.5543 18.1879 15.4042 18.1257 15.2936 18.0151L14.4942 17.2157C13.7075 17.7123 12.8357 18.0736 11.9302 18.2784V19.4083C11.93 19.7343 11.6659 19.9984 11.3401 19.9984Z" fill="#507C5C"/>
<path d="M10.1247 15.3343C12.9072 15.3343 15.1629 13.0786 15.1629 10.2961C15.1629 7.51351 12.9072 5.25781 10.1247 5.25781C7.34212 5.25781 5.08643 7.51351 5.08643 10.2961C5.08643 13.0786 7.34212 15.3343 10.1247 15.3343Z" fill="#CFF09E"/>
<path d="M10.1252 15.9242C7.02184 15.9242 4.49707 13.3995 4.49707 10.2961C4.49707 7.19273 7.02184 4.66797 10.1252 4.66797C13.2286 4.66797 15.7533 7.19273 15.7533 10.2961C15.7533 13.3995 13.2286 15.9242 10.1252 15.9242ZM10.1252 5.84789C7.67246 5.84789 5.67699 7.84336 5.67699 10.2961C5.67699 12.7488 7.67246 14.7443 10.1252 14.7443C12.5779 14.7443 14.5734 12.7488 14.5734 10.2961C14.5734 7.84336 12.5779 5.84789 10.1252 5.84789Z" fill="#507C5C"/>
<path d="M19.2399 8.48988H18.11C17.9052 7.5843 17.5438 6.71258 17.0474 5.92586L17.8467 5.12652C17.9573 5.0159 18.0195 4.86582 18.0195 4.70937C18.0195 4.55293 17.9573 4.40285 17.8467 4.29223L16.128 2.57352C16.0174 2.46289 15.8673 2.4007 15.7109 2.4007C15.5544 2.4007 15.4043 2.46289 15.2937 2.57352L14.4943 3.37289C13.7076 2.87637 12.8359 2.51504 11.9303 2.3102V1.17992H12.8294C13.1552 1.17992 13.4194 0.915781 13.4194 0.589961C13.4194 0.264141 13.1552 0 12.8294 0H11.3403H8.90969H7.42063C7.09481 0 6.83066 0.264141 6.83066 0.589961C6.83066 0.915781 7.09481 1.17992 7.42063 1.17992H8.31973V2.31016C7.41422 2.515 6.54242 2.87633 5.7557 3.37285L4.95633 2.57344C4.8457 2.46281 4.69562 2.40063 4.53918 2.40063C4.38273 2.40063 4.23266 2.46281 4.12203 2.57344L2.40328 4.29219C2.29266 4.40281 2.23047 4.55289 2.23047 4.70934C2.23047 4.86578 2.29266 5.01586 2.40328 5.12648L3.5466 6.26977C3.77699 6.50016 4.15055 6.50016 4.3809 6.26977C4.61129 6.03937 4.61129 5.66582 4.3809 5.43543L3.65473 4.7093L4.53914 3.82488L5.26531 4.55105C5.47008 4.75582 5.7932 4.78168 6.02789 4.61211C6.90703 3.97707 7.93594 3.5507 9.00332 3.37902C9.28934 3.33305 9.49961 3.08621 9.49961 2.79656V1.17992H10.7503V2.79664C10.7503 3.08633 10.9606 3.33316 11.2466 3.3791C12.3139 3.55078 13.3429 3.97715 14.222 4.61219C14.4568 4.78168 14.7798 4.75586 14.9846 4.55113L15.7108 3.82496L16.5952 4.70937L15.8691 5.43551C15.6643 5.64027 15.6384 5.9634 15.8079 6.19816C16.443 7.0773 16.8693 8.10621 17.041 9.17359C17.087 9.45961 17.3338 9.66988 17.6235 9.66988H18.6499V10.9206H17.6235C17.2977 10.9206 17.0335 11.1847 17.0335 11.5105C17.0335 11.8364 17.2977 12.1005 17.6235 12.1005H19.2398C19.5657 12.1005 19.8298 11.8364 19.8298 11.5105V9.07992C19.8298 8.75402 19.5657 8.48988 19.2399 8.48988Z" fill="#507C5C"/>
<path d="M12.0325 10.8854H10.1446C9.81883 10.8854 9.55469 10.6212 9.55469 10.2954V8.23059C9.55469 7.90477 9.81883 7.64062 10.1446 7.64062C10.4705 7.64062 10.7346 7.90477 10.7346 8.23059V9.70547H12.0325C12.3583 9.70547 12.6225 9.96961 12.6225 10.2954C12.6225 10.6212 12.3583 10.8854 12.0325 10.8854Z" fill="#507C5C"/>
</g>
<defs>
<clipPath id="clip0_584_20588">
<rect width="20" height="20" fill="white" transform="translate(0.125)"/>
</clipPath>
</defs>
</svg>
