<svg width="114" height="126" viewBox="0 0 114 126" fill="none" xmlns="http://www.w3.org/2000/svg">
<path d="M103.938 24.5625L66.8125 3.125C60.75 -0.375 53.25 -0.375 47.125 3.125L10.0625 24.5625C4 28.0625 0.25 34.5625 0.25 41.625V84.375C0.25 91.375 4 97.875 10.0625 101.438L47.1875 122.875C53.25 126.375 60.75 126.375 66.875 122.875L104 101.438C110.062 97.9375 113.812 91.4375 113.812 84.375V41.625C113.75 34.5625 110 28.125 103.938 24.5625ZM52.3125 36.4375C52.3125 33.875 54.4375 31.75 57 31.75C59.5625 31.75 61.6875 33.875 61.6875 36.4375V69.25C61.6875 71.8125 59.5625 73.9375 57 73.9375C54.4375 73.9375 52.3125 71.8125 52.3125 69.25V36.4375ZM62.75 91.9375C62.4375 92.6875 62 93.375 61.4375 94C60.25 95.1875 58.6875 95.8125 57 95.8125C56.1875 95.8125 55.375 95.625 54.625 95.3125C53.8125 95 53.1875 94.5625 52.5625 94C52 93.375 51.5625 92.6875 51.1875 91.9375C50.875 91.1875 50.75 90.375 50.75 89.5625C50.75 87.9375 51.375 86.3125 52.5625 85.125C53.1875 84.5625 53.8125 84.125 54.625 83.8125C56.9375 82.8125 59.6875 83.375 61.4375 85.125C62 85.75 62.4375 86.375 62.75 87.1875C63.0625 87.9375 63.25 88.75 63.25 89.5625C63.25 90.375 63.0625 91.1875 62.75 91.9375Z" fill="#DA0C0C"/>
</svg>
